<svg width="123" height="121" viewBox="0 0 123 121" fill="none" xmlns="http://www.w3.org/2000/svg">
<g filter="url(#filter0_d_17_29)">
<path d="M80.8287 82.6388H70.6372V79.0422C70.6372 78.1827 69.9344 77.4817 69.0725 77.4817H54.187C53.3252 77.4817 52.6223 78.1827 52.6223 79.0422V82.6388H42.4309C41.5691 82.6388 40.8662 83.3398 40.8662 84.1993V88.9725C40.8662 89.832 41.5691 90.533 42.4309 90.533H80.8287C81.6905 90.533 82.3934 89.832 82.3934 88.9725V84.1993C82.3934 83.3398 81.6905 82.6388 80.8287 82.6388Z" fill="url(#paint0_radial_17_29)"/>
</g>
<g filter="url(#filter1_d_17_29)">
<path d="M91.0954 41.7742H84.4266V38.4696C85.3219 38.4696 86.0498 37.7436 86.0498 36.8507V32.2026C86.0498 31.3097 85.3219 30.5837 84.4266 30.5837H38.8496C37.9543 30.5837 37.2264 31.3097 37.2264 32.2026V36.8507C37.2264 37.7436 37.9543 38.4696 38.8496 38.4696V41.7742H32.1809C31.3525 41.7742 30.6831 42.4417 30.6831 43.2679V54.8004C30.6831 61.8518 36.4398 67.593 43.5102 67.593H45.2339C49.3758 71.8823 55.1911 74.561 61.6423 74.561C68.0851 74.561 73.9005 71.8906 78.0507 67.593H79.7743C86.8447 67.593 92.6015 61.8518 92.6015 54.8004V43.2679C92.6015 42.4417 91.9321 41.7742 91.1037 41.7742H91.0954ZM33.6786 54.8004V44.7616H38.8496V51.8297C38.8496 56.5445 40.2888 60.9255 42.7572 64.5639C37.6866 64.18 33.6786 59.9492 33.6786 54.8004ZM89.5976 54.8004C89.5976 59.9575 85.5896 64.18 80.519 64.5639C82.9874 60.9339 84.4266 56.5528 84.4266 51.8297V44.7616H89.5976V54.8004Z" fill="url(#paint1_radial_17_29)"/>
</g>
<path d="M83.8911 46.8061H76.6282V50.1441H82.2176V61.3428C82.2176 67.0924 77.7411 71.8156 72.0764 72.2412C74.8292 68.1856 76.4441 63.2955 76.4441 58.0299V43.1094C77.4482 43.1094 78.2598 42.2999 78.2598 41.2986V36.1081C78.2598 35.1067 77.4482 34.2972 76.4441 34.2972H25.579C24.5749 34.2972 23.7633 35.1067 23.7633 36.1081V41.2986C23.7633 42.2999 24.5749 43.1094 25.579 43.1094V58.0299C25.579 63.2955 27.1856 68.1856 29.9468 72.2412C24.2905 71.8156 19.8056 67.0924 19.8056 61.3428V50.1441H25.3866V46.8061H18.1321C17.2117 46.8061 16.4586 47.5572 16.4586 48.4751V61.3428C16.4586 69.2203 22.8847 75.6208 30.7751 75.6208H32.6996C37.3268 80.4108 43.8198 83.3899 51.0158 83.3899C58.2117 83.3899 64.7047 80.4024 69.3319 75.6208H71.2564C79.1551 75.6208 85.5729 69.212 85.5729 61.3428V48.4751C85.5729 47.5572 84.8198 46.8061 83.8994 46.8061H83.8911Z" fill="url(#paint2_radial_17_29)"/>
<path opacity="0.35" d="M83.8911 46.8061H76.6282V50.1441H82.2176V61.3428C82.2176 67.0924 77.7411 71.8156 72.0764 72.2412C74.8292 68.1856 76.4441 63.2955 76.4441 58.0299V43.1094C77.4482 43.1094 78.2598 42.2999 78.2598 41.2986V36.1081C78.2598 35.1067 77.4482 34.2972 76.4441 34.2972H25.579C24.5749 34.2972 23.7633 35.1067 23.7633 36.1081V41.2986C23.7633 42.2999 24.5749 43.1094 25.579 43.1094V58.0299C25.579 63.2955 27.1856 68.1856 29.9468 72.2412C24.2905 71.8156 19.8056 67.0924 19.8056 61.3428V50.1441H25.3866V46.8061H18.1321C17.2117 46.8061 16.4586 47.5572 16.4586 48.4751V61.3428C16.4586 69.2203 22.8847 75.6208 30.7751 75.6208H32.6996C37.3268 80.4108 43.8198 83.3899 51.0158 83.3899C58.2117 83.3899 64.7047 80.4024 69.3319 75.6208H71.2564C79.1551 75.6208 85.5729 69.212 85.5729 61.3428V48.4751C85.5729 47.5572 84.8198 46.8061 83.8994 46.8061H83.8911Z" fill="url(#paint3_radial_17_29)"/>
<path opacity="0.32" d="M83.8911 46.8061H76.6282V50.1441H82.2176V61.3428C82.2176 67.0924 77.7411 71.8156 72.0764 72.2412C74.8292 68.1856 76.4441 63.2955 76.4441 58.0299V43.1094C77.4482 43.1094 78.2598 42.2999 78.2598 41.2986V36.1081C78.2598 35.1067 77.4482 34.2972 76.4441 34.2972H25.579C24.5749 34.2972 23.7633 35.1067 23.7633 36.1081V41.2986C23.7633 42.2999 24.5749 43.1094 25.579 43.1094V58.0299C25.579 63.2955 27.1856 68.1856 29.9468 72.2412C24.2905 71.8156 19.8056 67.0924 19.8056 61.3428V50.1441H25.3866V46.8061H18.1321C17.2117 46.8061 16.4586 47.5572 16.4586 48.4751V61.3428C16.4586 69.2203 22.8847 75.6208 30.7751 75.6208H32.6996C37.3268 80.4108 43.8198 83.3899 51.0158 83.3899C58.2117 83.3899 64.7047 80.4024 69.3319 75.6208H71.2564C79.1551 75.6208 85.5729 69.212 85.5729 61.3428V48.4751C85.5729 47.5572 84.8198 46.8061 83.8994 46.8061H83.8911Z" fill="url(#paint4_radial_17_29)"/>
<path opacity="0.31" d="M76.5111 34.3055H25.5205C24.5547 34.3055 23.7717 35.0864 23.7717 36.0496V41.3653C23.7717 42.3285 24.5547 43.1093 25.5205 43.1093H76.5111C77.4769 43.1093 78.2599 42.3285 78.2599 41.3653V36.0496C78.2599 35.0864 77.4769 34.3055 76.5111 34.3055Z" fill="white"/>
<path opacity="0.31" d="M52.8984 49.7018L54.7224 55.3095H60.6382C62.5627 55.3095 63.3575 57.7629 61.8012 58.8894L57.0151 62.3609L58.8392 67.9686C59.4333 69.7878 57.3414 71.3065 55.7851 70.18L50.999 66.7085L46.2129 70.18C44.6565 71.3065 42.5647 69.7878 43.1588 67.9686L44.9829 62.3609L40.1967 58.8894C38.6404 57.7629 39.4437 55.3095 41.3598 55.3095H47.2755L49.0996 49.7018C49.6937 47.8826 52.2792 47.8826 52.8733 49.7018H52.8984Z" fill="white"/>
<path d="M72.4445 92.4106H61.0649V88.3968C61.0649 87.4371 60.2868 86.6527 59.3162 86.6527H42.707C41.7447 86.6527 40.9582 87.4288 40.9582 88.3968V92.4106H29.5786C28.6164 92.4106 27.8298 93.1867 27.8298 94.1547V99.4787C27.8298 100.438 28.608 101.223 29.5786 101.223H72.4362C73.3984 101.223 74.1849 100.447 74.1849 99.4787V94.1547C74.1849 93.1951 73.4068 92.4106 72.4362 92.4106H72.4445Z" fill="url(#paint5_radial_17_29)"/>
<path opacity="0.35" d="M72.4445 92.4106H61.0649V88.3968C61.0649 87.4371 60.2868 86.6527 59.3162 86.6527H42.707C41.7447 86.6527 40.9582 87.4288 40.9582 88.3968V92.4106H29.5786C28.6164 92.4106 27.8298 93.1867 27.8298 94.1547V99.4787C27.8298 100.438 28.608 101.223 29.5786 101.223H72.4362C73.3984 101.223 74.1849 100.447 74.1849 99.4787V94.1547C74.1849 93.1951 73.4068 92.4106 72.4362 92.4106H72.4445Z" fill="url(#paint6_radial_17_29)"/>
<path opacity="0.32" d="M72.4445 92.4106H61.0649V88.3968C61.0649 87.4371 60.2868 86.6527 59.3162 86.6527H42.707C41.7447 86.6527 40.9582 87.4288 40.9582 88.3968V92.4106H29.5786C28.6164 92.4106 27.8298 93.1867 27.8298 94.1547V99.4787C27.8298 100.438 28.608 101.223 29.5786 101.223H72.4362C73.3984 101.223 74.1849 100.447 74.1849 99.4787V94.1547C74.1849 93.1951 73.4068 92.4106 72.4362 92.4106H72.4445Z" fill="url(#paint7_radial_17_29)"/>
<path opacity="0.31" d="M72.4362 92.4106H29.587C28.6212 92.4106 27.8383 93.1915 27.8383 94.1547V99.4704C27.8383 100.434 28.6212 101.214 29.587 101.214H72.4362C73.402 101.214 74.185 100.434 74.185 99.4704V94.1547C74.185 93.1915 73.402 92.4106 72.4362 92.4106Z" fill="white"/>
<g opacity="0.5">
<path d="M76.4441 49.0592H75.3564V58.0382C75.3564 62.9116 73.9088 67.6181 71.1811 71.6403L69.9176 73.5012L72.1684 73.3343C78.4188 72.8587 83.3137 67.6014 83.3137 61.3511V49.0675H76.4525L76.4441 49.0592ZM82.2176 61.3428C82.2176 67.0924 77.7411 71.8155 72.0764 72.2411C74.8292 68.1855 76.4441 63.2955 76.4441 58.0299V50.1357H82.2176V61.3344V61.3428Z" fill="url(#paint8_linear_17_29)"/>
<path d="M83.8911 46.8061H76.4441V43.1177C77.4482 43.1177 78.2598 42.3082 78.2598 41.3069V36.1164C78.2598 35.115 77.4482 34.3055 76.4441 34.3055H25.579C24.5749 34.3055 23.7633 35.115 23.7633 36.1164V41.3069C23.7633 42.3082 24.5749 43.1177 25.579 43.1177V46.8061H18.1321C17.2117 46.8061 16.4586 47.5571 16.4586 48.4751V61.3428C16.4586 69.2203 22.8847 75.6208 30.7751 75.6208H32.6996C37.3268 80.4107 43.8198 83.3898 51.0158 83.3898C58.2117 83.3898 64.7047 80.4024 69.3319 75.6208H71.2564C79.1551 75.6208 85.5729 69.212 85.5729 61.3428V48.4751C85.5729 47.5571 84.8198 46.8061 83.8994 46.8061H83.8911ZM84.4768 61.3428C84.4768 68.6195 78.5443 74.536 71.248 74.536H68.8633L68.5454 74.8697C63.9098 79.668 57.6845 82.3133 51.0158 82.3133C44.347 82.3133 38.1217 79.668 33.4862 74.8697L33.1682 74.536H30.7835C23.4872 74.536 17.5547 68.6195 17.5547 61.3428V48.4751C17.5547 48.1496 17.8141 47.8909 18.1405 47.8909H26.6751V43.1177V42.0329H25.5874C25.1858 42.0329 24.8594 41.7074 24.8594 41.3069V36.1164C24.8594 35.7158 25.1858 35.3904 25.5874 35.3904H76.4525C76.8541 35.3904 77.1805 35.7158 77.1805 36.1164V41.3069C77.1805 41.7074 76.8541 42.0329 76.4525 42.0329H75.3647V47.8909H83.8994C84.2258 47.8909 84.4851 48.1496 84.4851 48.4751V61.3428H84.4768Z" fill="url(#paint9_linear_17_29)"/>
<path d="M26.6668 58.0382V49.0592H18.7178V61.3428C18.7178 67.5931 23.6127 72.8503 29.8631 73.326L32.1139 73.4929L30.8504 71.632C28.1143 67.6098 26.6751 62.9033 26.6751 58.0299L26.6668 58.0382ZM19.8055 61.3511V50.1524H25.579V58.0466C25.579 63.3122 27.1855 68.2022 29.9468 72.2578C24.2904 71.8322 19.8055 67.1091 19.8055 61.3595V61.3511Z" fill="url(#paint10_linear_17_29)"/>
<path d="M72.4445 92.4106H61.0649V88.3967C61.0649 87.4371 60.2868 86.6526 59.3162 86.6526H42.707C41.7447 86.6526 40.9582 87.4287 40.9582 88.3967V92.4106H29.5786C28.6164 92.4106 27.8298 93.1867 27.8298 94.1547V99.4787C27.8298 100.438 28.608 101.223 29.5786 101.223H72.4362C73.3984 101.223 74.1849 100.447 74.1849 99.4787V94.1547C74.1849 93.195 73.4068 92.4106 72.4362 92.4106H72.4445ZM73.1056 99.4787C73.1056 99.8375 72.8127 100.138 72.4445 100.138H29.587C29.2272 100.138 28.926 99.8458 28.926 99.4787V94.1547C28.926 93.7958 29.2188 93.4954 29.587 93.4954H42.0543V88.3967C42.0543 88.0379 42.3472 87.7375 42.7153 87.7375H59.3245C59.6843 87.7375 59.9856 88.0295 59.9856 88.3967V93.4954H72.4529C72.8127 93.4954 73.1139 93.7875 73.1139 94.1547V99.4787H73.1056Z" fill="url(#paint11_linear_17_29)"/>
</g>
<path opacity="0.71" d="M76.1512 35.5239L71.9759 46.1302L77.5151 36.1581L88.1416 40.3222L78.151 34.7979L82.3179 24.2L76.7871 34.1637L66.1522 30.008L76.1512 35.5239Z" fill="url(#paint12_radial_17_29)"/>
<defs>
<filter id="filter0_d_17_29" x="39.2162" y="72.5217" width="51.4471" height="22.9713" filterUnits="userSpaceOnUse" color-interpolation-filters="sRGB">
<feFlood flood-opacity="0" result="BackgroundImageFix"/>
<feColorMatrix in="SourceAlpha" type="matrix" values="0 0 0 0 0 0 0 0 0 0 0 0 0 0 0 0 0 0 127 0" result="hardAlpha"/>
<feOffset dx="3.31"/>
<feGaussianBlur stdDeviation="2.48"/>
<feColorMatrix type="matrix" values="0 0 0 0 0 0 0 0 0 0 0 0 0 0 0 0 0 0 0.25 0"/>
<feBlend mode="normal" in2="BackgroundImageFix" result="effect1_dropShadow_17_29"/>
<feBlend mode="normal" in="SourceGraphic" in2="effect1_dropShadow_17_29" result="shape"/>
</filter>
<filter id="filter1_d_17_29" x="29.0331" y="25.6237" width="71.8383" height="53.8972" filterUnits="userSpaceOnUse" color-interpolation-filters="sRGB">
<feFlood flood-opacity="0" result="BackgroundImageFix"/>
<feColorMatrix in="SourceAlpha" type="matrix" values="0 0 0 0 0 0 0 0 0 0 0 0 0 0 0 0 0 0 127 0" result="hardAlpha"/>
<feOffset dx="3.31"/>
<feGaussianBlur stdDeviation="2.48"/>
<feColorMatrix type="matrix" values="0 0 0 0 0 0 0 0 0 0 0 0 0 0 0 0 0 0 0.25 0"/>
<feBlend mode="normal" in2="BackgroundImageFix" result="effect1_dropShadow_17_29"/>
<feBlend mode="normal" in="SourceGraphic" in2="effect1_dropShadow_17_29" result="shape"/>
</filter>
<radialGradient id="paint0_radial_17_29" cx="0" cy="0" r="1" gradientUnits="userSpaceOnUse" gradientTransform="translate(77.4817 29.0149) scale(72.3608 72.1661)">
<stop stop-color="#FFC700"/>
<stop offset="1" stop-color="#FF6A00"/>
</radialGradient>
<radialGradient id="paint1_radial_17_29" cx="0" cy="0" r="1" gradientUnits="userSpaceOnUse" gradientTransform="translate(77.4817 29.0149) scale(72.3608 72.1661)">
<stop stop-color="#FFC700"/>
<stop offset="1" stop-color="#FF6A00"/>
</radialGradient>
<radialGradient id="paint2_radial_17_29" cx="0" cy="0" r="1" gradientUnits="userSpaceOnUse" gradientTransform="translate(47.6688 88.3801) scale(48.5139 48.3833)">
<stop stop-color="#6800FF"/>
<stop offset="0.33" stop-color="#6500FC"/>
<stop offset="0.52" stop-color="#5F04F4"/>
<stop offset="0.67" stop-color="#5309E6"/>
<stop offset="0.81" stop-color="#4311D2"/>
<stop offset="0.93" stop-color="#2E1CB9"/>
<stop offset="1" stop-color="#1F24A6"/>
</radialGradient>
<radialGradient id="paint3_radial_17_29" cx="0" cy="0" r="1" gradientUnits="userSpaceOnUse" gradientTransform="translate(51.4007 68.753) scale(39.3684 39.2624)">
<stop stop-color="white" stop-opacity="0"/>
<stop offset="0.37" stop-color="white" stop-opacity="0"/>
<stop offset="0.51" stop-color="white" stop-opacity="0.03"/>
<stop offset="0.6" stop-color="white" stop-opacity="0.08"/>
<stop offset="0.68" stop-color="white" stop-opacity="0.15"/>
<stop offset="0.75" stop-color="white" stop-opacity="0.23"/>
<stop offset="0.8" stop-color="white" stop-opacity="0.34"/>
<stop offset="0.86" stop-color="white" stop-opacity="0.47"/>
<stop offset="0.91" stop-color="white" stop-opacity="0.61"/>
<stop offset="0.95" stop-color="white" stop-opacity="0.78"/>
<stop offset="0.99" stop-color="white" stop-opacity="0.96"/>
<stop offset="1" stop-color="white"/>
</radialGradient>
<radialGradient id="paint4_radial_17_29" cx="0" cy="0" r="1" gradientUnits="userSpaceOnUse" gradientTransform="translate(71.0807 41.3903) scale(72.0596 71.8657)">
<stop stop-color="white"/>
<stop offset="0.07" stop-color="white" stop-opacity="0.89"/>
<stop offset="0.27" stop-color="white" stop-opacity="0.63"/>
<stop offset="0.46" stop-color="white" stop-opacity="0.4"/>
<stop offset="0.63" stop-color="white" stop-opacity="0.23"/>
<stop offset="0.78" stop-color="white" stop-opacity="0.1"/>
<stop offset="0.91" stop-color="white" stop-opacity="0.03"/>
<stop offset="1" stop-color="white" stop-opacity="0"/>
</radialGradient>
<radialGradient id="paint5_radial_17_29" cx="0" cy="0" r="1" gradientUnits="userSpaceOnUse" gradientTransform="translate(0.418401 88.3801) scale(48.5139 48.3833)">
<stop stop-color="#6800FF"/>
<stop offset="0.33" stop-color="#6500FC"/>
<stop offset="0.52" stop-color="#5F04F4"/>
<stop offset="0.67" stop-color="#5309E6"/>
<stop offset="0.81" stop-color="#4311D2"/>
<stop offset="0.93" stop-color="#2E1CB9"/>
<stop offset="1" stop-color="#1F24A6"/>
</radialGradient>
<radialGradient id="paint6_radial_17_29" cx="0" cy="0" r="1" gradientUnits="userSpaceOnUse" gradientTransform="translate(0.418402 68.753) scale(39.3684 39.2624)">
<stop stop-color="white" stop-opacity="0"/>
<stop offset="0.37" stop-color="white" stop-opacity="0"/>
<stop offset="0.51" stop-color="white" stop-opacity="0.03"/>
<stop offset="0.6" stop-color="white" stop-opacity="0.08"/>
<stop offset="0.68" stop-color="white" stop-opacity="0.15"/>
<stop offset="0.75" stop-color="white" stop-opacity="0.23"/>
<stop offset="0.8" stop-color="white" stop-opacity="0.34"/>
<stop offset="0.86" stop-color="white" stop-opacity="0.47"/>
<stop offset="0.91" stop-color="white" stop-opacity="0.61"/>
<stop offset="0.95" stop-color="white" stop-opacity="0.78"/>
<stop offset="0.99" stop-color="white" stop-opacity="0.96"/>
<stop offset="1" stop-color="white"/>
</radialGradient>
<radialGradient id="paint7_radial_17_29" cx="0" cy="0" r="1" gradientUnits="userSpaceOnUse" gradientTransform="translate(0.418401 41.3903) scale(72.0596 71.8657)">
<stop stop-color="white"/>
<stop offset="0.07" stop-color="white" stop-opacity="0.89"/>
<stop offset="0.27" stop-color="white" stop-opacity="0.63"/>
<stop offset="0.46" stop-color="white" stop-opacity="0.4"/>
<stop offset="0.63" stop-color="white" stop-opacity="0.23"/>
<stop offset="0.78" stop-color="white" stop-opacity="0.1"/>
<stop offset="0.91" stop-color="white" stop-opacity="0.03"/>
<stop offset="1" stop-color="white" stop-opacity="0"/>
</radialGradient>
<linearGradient id="paint8_linear_17_29" x1="39.3852" y1="17.182" x2="100.625" y2="90.1198" gradientUnits="userSpaceOnUse">
<stop stop-color="white" stop-opacity="0"/>
<stop offset="0.05" stop-color="white" stop-opacity="0.02"/>
<stop offset="0.12" stop-color="white" stop-opacity="0.08"/>
<stop offset="0.18" stop-color="white" stop-opacity="0.17"/>
<stop offset="0.26" stop-color="white" stop-opacity="0.3"/>
<stop offset="0.33" stop-color="white" stop-opacity="0.47"/>
<stop offset="0.41" stop-color="white" stop-opacity="0.67"/>
<stop offset="0.48" stop-color="white" stop-opacity="0.91"/>
<stop offset="0.51" stop-color="white" stop-opacity="0.96"/>
<stop offset="0.53" stop-color="white" stop-opacity="0.78"/>
<stop offset="0.56" stop-color="white" stop-opacity="0.61"/>
<stop offset="0.58" stop-color="white" stop-opacity="0.47"/>
<stop offset="0.61" stop-color="white" stop-opacity="0.34"/>
<stop offset="0.64" stop-color="white" stop-opacity="0.23"/>
<stop offset="0.67" stop-color="white" stop-opacity="0.15"/>
<stop offset="0.71" stop-color="white" stop-opacity="0.08"/>
<stop offset="0.75" stop-color="white" stop-opacity="0.03"/>
<stop offset="0.82" stop-color="white" stop-opacity="0"/>
<stop offset="1" stop-color="white" stop-opacity="0"/>
</linearGradient>
<linearGradient id="paint9_linear_17_29" x1="27.3445" y1="27.2875" x2="88.5839" y2="100.225" gradientUnits="userSpaceOnUse">
<stop stop-color="white" stop-opacity="0"/>
<stop offset="0.05" stop-color="white" stop-opacity="0.02"/>
<stop offset="0.12" stop-color="white" stop-opacity="0.08"/>
<stop offset="0.18" stop-color="white" stop-opacity="0.17"/>
<stop offset="0.26" stop-color="white" stop-opacity="0.3"/>
<stop offset="0.33" stop-color="white" stop-opacity="0.47"/>
<stop offset="0.41" stop-color="white" stop-opacity="0.67"/>
<stop offset="0.48" stop-color="white" stop-opacity="0.91"/>
<stop offset="0.51" stop-color="white" stop-opacity="0.96"/>
<stop offset="0.53" stop-color="white" stop-opacity="0.78"/>
<stop offset="0.56" stop-color="white" stop-opacity="0.61"/>
<stop offset="0.58" stop-color="white" stop-opacity="0.47"/>
<stop offset="0.61" stop-color="white" stop-opacity="0.34"/>
<stop offset="0.64" stop-color="white" stop-opacity="0.23"/>
<stop offset="0.67" stop-color="white" stop-opacity="0.15"/>
<stop offset="0.71" stop-color="white" stop-opacity="0.08"/>
<stop offset="0.75" stop-color="white" stop-opacity="0.03"/>
<stop offset="0.82" stop-color="white" stop-opacity="0"/>
<stop offset="1" stop-color="white" stop-opacity="0"/>
</linearGradient>
<linearGradient id="paint10_linear_17_29" x1="9.75634" y1="42.0579" x2="71.0041" y2="114.996" gradientUnits="userSpaceOnUse">
<stop stop-color="white" stop-opacity="0"/>
<stop offset="0.05" stop-color="white" stop-opacity="0.02"/>
<stop offset="0.12" stop-color="white" stop-opacity="0.08"/>
<stop offset="0.18" stop-color="white" stop-opacity="0.17"/>
<stop offset="0.26" stop-color="white" stop-opacity="0.3"/>
<stop offset="0.33" stop-color="white" stop-opacity="0.47"/>
<stop offset="0.41" stop-color="white" stop-opacity="0.67"/>
<stop offset="0.48" stop-color="white" stop-opacity="0.91"/>
<stop offset="0.51" stop-color="white" stop-opacity="0.96"/>
<stop offset="0.53" stop-color="white" stop-opacity="0.78"/>
<stop offset="0.56" stop-color="white" stop-opacity="0.61"/>
<stop offset="0.58" stop-color="white" stop-opacity="0.47"/>
<stop offset="0.61" stop-color="white" stop-opacity="0.34"/>
<stop offset="0.64" stop-color="white" stop-opacity="0.23"/>
<stop offset="0.67" stop-color="white" stop-opacity="0.15"/>
<stop offset="0.71" stop-color="white" stop-opacity="0.08"/>
<stop offset="0.75" stop-color="white" stop-opacity="0.03"/>
<stop offset="0.82" stop-color="white" stop-opacity="0"/>
<stop offset="1" stop-color="white" stop-opacity="0"/>
</linearGradient>
<linearGradient id="paint11_linear_17_29" x1="6.84453" y1="44.5029" x2="68.0923" y2="117.441" gradientUnits="userSpaceOnUse">
<stop stop-color="white" stop-opacity="0"/>
<stop offset="0.05" stop-color="white" stop-opacity="0.02"/>
<stop offset="0.12" stop-color="white" stop-opacity="0.08"/>
<stop offset="0.18" stop-color="white" stop-opacity="0.17"/>
<stop offset="0.26" stop-color="white" stop-opacity="0.3"/>
<stop offset="0.33" stop-color="white" stop-opacity="0.47"/>
<stop offset="0.41" stop-color="white" stop-opacity="0.67"/>
<stop offset="0.48" stop-color="white" stop-opacity="0.91"/>
<stop offset="0.51" stop-color="white" stop-opacity="0.96"/>
<stop offset="0.53" stop-color="white" stop-opacity="0.78"/>
<stop offset="0.56" stop-color="white" stop-opacity="0.61"/>
<stop offset="0.58" stop-color="white" stop-opacity="0.47"/>
<stop offset="0.61" stop-color="white" stop-opacity="0.34"/>
<stop offset="0.64" stop-color="white" stop-opacity="0.23"/>
<stop offset="0.67" stop-color="white" stop-opacity="0.15"/>
<stop offset="0.71" stop-color="white" stop-opacity="0.08"/>
<stop offset="0.75" stop-color="white" stop-opacity="0.03"/>
<stop offset="0.82" stop-color="white" stop-opacity="0"/>
<stop offset="1" stop-color="white" stop-opacity="0"/>
</linearGradient>
<radialGradient id="paint12_radial_17_29" cx="0" cy="0" r="1" gradientUnits="userSpaceOnUse" gradientTransform="translate(76.9494 35.2525) rotate(115.049) scale(12.1225 12.1435)">
<stop stop-color="white"/>
<stop offset="0.09" stop-color="white" stop-opacity="0.84"/>
<stop offset="0.23" stop-color="white" stop-opacity="0.62"/>
<stop offset="0.36" stop-color="white" stop-opacity="0.43"/>
<stop offset="0.5" stop-color="white" stop-opacity="0.28"/>
<stop offset="0.63" stop-color="white" stop-opacity="0.15"/>
<stop offset="0.76" stop-color="white" stop-opacity="0.07"/>
<stop offset="0.89" stop-color="white" stop-opacity="0.02"/>
<stop offset="1" stop-color="white" stop-opacity="0"/>
</radialGradient>
</defs>
</svg>
