<svg width="84" height="83" viewBox="0 0 84 83" fill="none" xmlns="http://www.w3.org/2000/svg">
<g clip-path="url(#clip0_17_1943)">
<path d="M84 41.5035C84 64.3395 65.4614 82.8507 42.5881 82.8507C19.7149 82.8507 1.17627 64.3361 1.17627 41.5035C1.17627 18.6708 19.7149 0.152832 42.5881 0.152832C65.4614 0.152832 84 18.664 84 41.5035Z" fill="url(#paint0_radial_17_1943)"/>
<path d="M84.0001 41.5034C84.0001 41.5034 83.9933 41.7547 83.9831 42.2469C83.9627 42.7357 83.9797 43.469 83.8947 44.4161C83.7689 46.3137 83.4663 49.1075 82.5144 52.5362C82.392 52.9605 82.2662 53.4018 82.1404 53.8533C81.9908 54.298 81.8378 54.7495 81.6781 55.2146C81.5285 55.683 81.3381 56.1481 81.1511 56.6234C80.9607 57.102 80.7839 57.5942 80.5493 58.0797C79.7062 60.052 78.6115 62.1024 77.2482 64.1731C74.5421 68.3113 70.697 72.5173 65.628 75.9391C63.0918 77.6398 60.2599 79.1301 57.1866 80.3081C54.1064 81.4894 50.7713 82.294 47.29 82.7149C46.8582 82.7794 46.4231 82.8032 45.9811 82.8405C45.5391 82.8711 45.1006 82.9084 44.6552 82.9423C44.2099 82.9559 43.7645 82.9695 43.3191 82.9797L42.6494 83.0001C42.4148 83.0001 42.2006 82.9899 41.9729 82.9865C41.5275 82.9763 41.0753 82.9661 40.6266 82.9593C40.1744 82.9423 39.7222 82.8982 39.2667 82.8677C38.3556 82.8235 37.4478 82.6877 36.5333 82.5757C34.7179 82.2974 32.8786 81.9477 31.0768 81.4147C30.1623 81.1805 29.2783 80.8512 28.374 80.5559C27.9287 80.3929 27.4867 80.213 27.0413 80.0399L26.375 79.7819L25.7223 79.49C22.2104 77.9589 18.865 75.8882 15.8291 73.3727C15.4551 73.0502 15.0812 72.7277 14.7072 72.4086C14.3366 72.0794 13.9865 71.7297 13.6227 71.3902L13.0855 70.8742L12.5688 70.3345C12.2288 69.9713 11.8718 69.625 11.5455 69.2482C10.206 67.7715 8.99228 66.1692 7.86358 64.5058C6.73828 62.839 5.75916 61.067 4.87524 59.2441C3.99471 57.4177 3.28757 55.5065 2.67562 53.5648C2.07388 51.6196 1.65231 49.6167 1.33274 47.6003C1.03017 45.5771 0.900977 43.5437 0.873779 41.4865C0.897577 39.4666 1.03017 37.4027 1.32934 35.3862C1.65231 33.3698 2.07388 31.3703 2.67562 29.4218C3.28757 27.48 3.99471 25.5722 4.87524 23.7425C5.75916 21.9195 6.73488 20.1475 7.86018 18.4773C8.99228 16.8139 10.206 15.215 11.5455 13.7383C12.8951 12.2684 14.3026 10.8698 15.8291 9.61379C18.865 7.09494 22.207 5.02758 25.7189 3.49658L26.375 3.20463L27.0413 2.94324C27.4867 2.77351 27.9287 2.5902 28.3706 2.43065C29.2715 2.13531 30.1589 1.80942 31.0734 1.57519C32.8752 1.03883 34.7111 0.692568 36.5299 0.414204C37.4444 0.305574 38.3522 0.169786 39.2633 0.122261C39.7154 0.0951033 40.1676 0.0475778 40.6198 0.033999C41.0719 0.023815 41.5241 0.0136309 41.9763 0.0034469C42.2006 0.0034469 42.4216 -0.0101318 42.6528 -0.0101318L43.3225 0.0102363C43.7679 0.023815 44.2099 0.033999 44.6552 0.0475778C45.1006 0.0815246 45.5425 0.115471 45.9811 0.149418C46.4231 0.183365 46.8616 0.210523 47.2968 0.275022C50.7747 0.695962 54.1166 1.49711 57.1899 2.68185C60.2701 3.85641 63.0986 5.35007 65.6314 7.05081C70.7004 10.4693 74.5455 14.6821 77.2516 18.8202C78.6115 20.8909 79.7096 22.9447 80.5527 24.9136C80.7873 25.3957 80.9641 25.8913 81.1545 26.3666C81.3415 26.8452 81.5319 27.3069 81.6814 27.7787C81.8378 28.2472 81.9908 28.6987 82.1438 29.14C82.2696 29.5915 82.3954 30.0294 82.5178 30.4538C83.4697 33.8824 83.7723 36.6762 83.8981 38.5738C83.9831 39.521 83.9661 40.2542 83.9864 40.7464C83.9966 41.2387 84.0034 41.4933 84.0034 41.4933L84.0001 41.5034ZM84.0001 41.5034C84.0001 41.5034 83.9899 41.2488 83.9797 40.7566C83.9593 40.2644 83.9763 39.5345 83.8845 38.584C83.7587 36.6898 83.4459 33.896 82.4872 30.4741C82.3648 30.0498 82.239 29.6119 82.1064 29.1604C81.9568 28.7191 81.8038 28.2642 81.6441 27.8025C81.4979 27.334 81.3041 26.869 81.1137 26.3937C80.9199 25.9185 80.7431 25.4262 80.512 24.9442C79.662 22.9787 78.5639 20.9317 77.2006 18.8677C74.4843 14.7466 70.646 10.5439 65.56 7.17302C63.0204 5.49944 60.1885 4.02954 57.1186 2.87874C54.0486 1.72116 50.7271 0.947169 47.2662 0.553386C46.8344 0.492281 46.4027 0.471913 45.9607 0.437966C45.5255 0.407414 45.087 0.376862 44.6484 0.34631C44.2065 0.336126 43.7611 0.325942 43.3191 0.315758L42.6528 0.302179C42.4352 0.302179 42.2074 0.312363 41.9865 0.319152C41.5411 0.332731 41.0923 0.342915 40.6436 0.359889C40.1948 0.380257 39.746 0.424388 39.2939 0.458334C38.3896 0.509255 37.492 0.651831 36.5843 0.763856C34.7825 1.0524 32.9704 1.41224 31.1856 1.95539C30.2813 2.19302 29.4075 2.5257 28.5168 2.82103C28.0748 2.98398 27.6431 3.1639 27.2011 3.33703L26.545 3.60181L25.899 3.89715C18.9738 6.97613 12.7082 12.1598 8.31574 18.7896C7.21084 20.4394 6.24872 22.1911 5.38519 23.9937C4.52167 25.7962 3.82813 27.6837 3.22978 29.5983C2.64163 31.5197 2.23026 33.4954 1.92089 35.4813C1.62851 37.4807 1.50613 39.4734 1.48573 41.5136C1.50952 43.5131 1.62851 45.5397 1.92089 47.529C2.23026 49.5183 2.64163 51.4906 3.22978 53.412C3.82473 55.33 4.51827 57.214 5.38519 59.02C6.25212 60.8192 7.20744 62.5708 8.31574 64.2241C12.7082 70.8539 18.9738 76.0376 25.899 79.1199L26.545 79.4119L27.2011 79.6767C27.6397 79.8464 28.0782 80.0263 28.5134 80.196C29.4075 80.4914 30.2813 80.8241 31.1856 81.0617C32.9704 81.6048 34.7825 81.9613 36.5843 82.2498C37.492 82.3618 38.393 82.5044 39.2939 82.5553C39.7426 82.5859 40.188 82.6334 40.6402 82.6538C41.0889 82.6674 41.5411 82.6809 41.9899 82.6911C42.2108 82.6979 42.4386 82.7081 42.6528 82.7081L43.3191 82.6911C43.7645 82.6843 44.2065 82.6776 44.645 82.664C45.087 82.6334 45.5255 82.6029 45.9607 82.5723C46.3993 82.5418 46.8344 82.518 47.2662 82.4569C50.7271 82.0597 54.052 81.2857 57.1186 80.1315C60.1919 78.9807 63.0205 77.5142 65.5634 75.8373C70.6494 72.4697 74.4877 68.2637 77.204 64.1426C78.5673 62.0786 79.6654 60.0316 80.5154 58.0661C80.7465 57.5807 80.9267 57.0884 81.1171 56.6132C81.3041 56.1379 81.5013 55.6729 81.6475 55.2044C81.8038 54.7393 81.9602 54.2878 82.1098 53.8431C82.2424 53.395 82.3682 52.9571 82.4906 52.5328C83.4493 49.1109 83.7621 46.3171 83.8879 44.4229C83.9797 43.4758 83.9627 42.7425 83.9831 42.2537C83.9967 41.7614 84.0034 41.5102 84.0034 41.5102L84.0001 41.5034Z" fill="#27282C"/>
<path d="M42.5881 0.960693C20.167 0.960693 1.98877 19.1087 1.98877 41.5034C1.98877 63.8981 20.167 82.0393 42.5881 82.0393C65.0092 82.0393 83.1874 63.8913 83.1874 41.5034C83.1874 19.1155 65.0092 0.960693 42.5881 0.960693ZM42.5881 79.6494C21.4895 79.6494 4.38216 62.5674 4.38216 41.5C4.38216 20.4326 21.4895 3.35055 42.5881 3.35055C63.6867 3.35055 80.794 20.4326 80.794 41.5C80.794 62.5674 63.6867 79.6494 42.5881 79.6494Z" fill="url(#paint1_radial_17_1943)"/>
<path style="mix-blend-mode:screen" d="M42.5881 0.960693C20.167 0.960693 1.98877 19.1087 1.98877 41.5034C1.98877 63.8981 20.167 82.0393 42.5881 82.0393C65.0092 82.0393 83.1874 63.8913 83.1874 41.5034C83.1874 19.1155 65.0092 0.960693 42.5881 0.960693ZM42.5881 79.6494C21.4895 79.6494 4.38216 62.5674 4.38216 41.5C4.38216 20.4326 21.4895 3.35055 42.5881 3.35055C63.6867 3.35055 80.794 20.4326 80.794 41.5C80.794 62.5674 63.6867 79.6494 42.5881 79.6494Z" fill="url(#paint2_linear_17_1943)"/>
<path d="M42.588 3.35059C21.4894 3.35059 4.38208 20.4326 4.38208 41.5034C4.38208 62.5742 21.4894 79.6529 42.588 79.6529C63.6866 79.6529 80.7939 62.5708 80.7939 41.5034C80.7939 20.436 63.69 3.35059 42.588 3.35059Z" fill="url(#paint3_radial_17_1943)"/>
<path d="M42.588 3.35059C21.4894 3.35059 4.38208 20.4326 4.38208 41.5034C4.38208 62.5742 21.4894 79.6529 42.588 79.6529C63.6866 79.6529 80.7939 62.5708 80.7939 41.5034C80.7939 20.436 63.69 3.35059 42.588 3.35059Z" fill="url(#paint4_radial_17_1943)"/>
<path d="M78.37 41.5034C78.37 61.2333 62.3506 77.2325 42.5881 77.2325C22.8256 77.2325 6.80615 61.2333 6.80615 41.5034C6.80615 21.7735 22.8256 5.771 42.5881 5.771C62.3506 5.771 78.37 21.7667 78.37 41.5034Z" fill="url(#paint5_radial_17_1943)"/>
<path style="mix-blend-mode:multiply" opacity="0.5" d="M42.5881 5.771C22.8256 5.771 6.80615 21.7667 6.80615 41.5034C6.80615 61.2401 22.8256 77.2325 42.5881 77.2325C62.3506 77.2325 78.37 61.2333 78.37 41.5034C78.37 21.7735 62.3506 5.771 42.5881 5.771ZM42.5881 75.1753C23.9645 75.1753 8.86638 60.0995 8.86638 41.5034C8.86638 22.9074 23.9645 7.82817 42.5881 7.82817C61.2117 7.82817 76.3098 22.904 76.3098 41.5034C76.3098 60.1029 61.2117 75.1753 42.5881 75.1753Z" fill="url(#paint6_radial_17_1943)"/>
<path style="mix-blend-mode:multiply" d="M44.2882 3.07228C44.2882 3.70709 43.7885 4.22648 43.1663 4.22648C42.5442 4.22648 42.0444 3.71048 42.0444 3.07228C42.0444 2.43408 42.5442 1.91809 43.1663 1.91809C43.7885 1.91809 44.2882 2.43408 44.2882 3.07228Z" fill="url(#paint7_radial_17_1943)"/>
<path d="M44.0469 3.01795C44.0469 3.54752 43.6287 3.97525 43.1119 3.97525C42.5952 3.97525 42.1804 3.54752 42.1804 3.01795C42.1804 2.48838 42.5986 2.05725 43.1119 2.05725C43.6253 2.05725 44.0469 2.48838 44.0469 3.01795Z" fill="url(#paint8_radial_17_1943)"/>
<path d="M43.1119 4.01934C42.5748 4.01934 42.1362 3.57124 42.1362 3.01791C42.1362 2.46458 42.5748 2.01648 43.1119 2.01648C43.6491 2.01648 44.0911 2.46458 44.0911 3.01791C44.0911 3.57124 43.6525 4.01934 43.1119 4.01934ZM43.1119 2.10474C42.6224 2.10474 42.2212 2.5155 42.2212 3.02131C42.2212 3.52711 42.619 3.93787 43.1119 3.93787C43.6049 3.93787 44.0027 3.52711 44.0027 3.02131C44.0027 2.5155 43.6049 2.10474 43.1119 2.10474Z" fill="#342B34"/>
<path style="mix-blend-mode:multiply" d="M43.8395 2.4137C43.8667 2.51214 43.8837 2.61398 43.8837 2.72261C43.8837 3.25218 43.4995 3.67991 43.0303 3.67991C42.6054 3.67991 42.2552 3.33026 42.1906 2.87198C42.1838 2.9195 42.1804 2.96703 42.1804 3.01795C42.1804 3.54752 42.5986 3.97525 43.1119 3.97525C43.6253 3.97525 44.0469 3.54752 44.0469 3.01795C44.0469 2.78711 43.9687 2.57664 43.8395 2.4137Z" fill="url(#paint9_radial_17_1943)"/>
<g style="mix-blend-mode:multiply">
<path d="M42.6394 3.84292L43.7681 2.33568L43.5131 2.15576L42.4082 3.64603L42.6394 3.84292Z" fill="url(#paint10_radial_17_1943)"/>
<path d="M42.6461 3.90737L42.3469 3.65276L43.5062 2.0946L43.8292 2.32544L42.6461 3.90737ZM42.4659 3.63919L42.6325 3.78176L43.7068 2.34581L43.5266 2.21681L42.4659 3.63919Z" fill="#342B34"/>
</g>
<path style="mix-blend-mode:screen" d="M43.2784 2.2542C43.2784 2.2542 42.8433 2.10823 42.5237 2.52238C42.2041 2.93314 42.7957 2.86524 43.2784 2.2542Z" fill="url(#paint11_radial_17_1943)"/>
<path style="mix-blend-mode:screen" opacity="0.53" d="M42.4864 2.99757C42.4864 3.05867 42.4524 3.1062 42.4082 3.1062C42.364 3.1062 42.3232 3.05867 42.3232 2.99757C42.3232 2.93646 42.3606 2.89233 42.4082 2.89233C42.4558 2.89233 42.4864 2.93986 42.4864 2.99757Z" fill="url(#paint12_radial_17_1943)"/>
<path style="mix-blend-mode:multiply" d="M73.988 17.5235C73.988 18.1617 73.4848 18.6776 72.866 18.6776C72.2473 18.6776 71.7441 18.1617 71.7441 17.5235C71.7441 16.8853 72.2439 16.3693 72.866 16.3693C73.4882 16.3693 73.988 16.8853 73.988 17.5235Z" fill="url(#paint13_radial_17_1943)"/>
<path d="M73.7466 17.4691C73.7466 17.9987 73.3318 18.4298 72.815 18.4298C72.2983 18.4298 71.8801 17.9987 71.8801 17.4691C71.8801 16.9396 72.3017 16.5118 72.815 16.5118C73.3284 16.5118 73.7466 16.943 73.7466 17.4691Z" fill="url(#paint14_radial_17_1943)"/>
<path d="M72.8151 18.4705C72.2745 18.4705 71.8359 18.0224 71.8359 17.4691C71.8359 16.9157 72.2745 16.4677 72.8151 16.4677C73.3556 16.4677 73.7942 16.9157 73.7942 17.4691C73.7942 18.0224 73.3556 18.4705 72.8151 18.4705ZM72.8151 16.5525C72.3255 16.5525 71.9243 16.9667 71.9243 17.4691C71.9243 17.9715 72.3255 18.3856 72.8151 18.3856C73.3046 18.3856 73.7024 17.9749 73.7024 17.4691C73.7024 16.9633 73.3046 16.5525 72.8151 16.5525Z" fill="#342B34"/>
<path style="mix-blend-mode:multiply" d="M73.5392 16.8683C73.5698 16.9633 73.5834 17.0686 73.5834 17.1772C73.5834 17.7068 73.2026 18.1345 72.7335 18.1345C72.3085 18.1345 71.9549 17.7849 71.8937 17.3266C71.8869 17.3741 71.8801 17.4216 71.8801 17.4725C71.8801 18.0021 72.3017 18.4332 72.815 18.4332C73.3284 18.4332 73.7466 18.0021 73.7466 17.4725C73.7466 17.2451 73.6684 17.0346 73.5392 16.8683Z" fill="url(#paint15_radial_17_1943)"/>
<g style="mix-blend-mode:multiply">
<path d="M72.3391 18.2975L73.4678 16.7869L73.2162 16.6069L72.1079 18.0938L72.3391 18.2975Z" fill="url(#paint16_radial_17_1943)"/>
<path d="M72.3492 18.3585L72.05 18.1039L73.2094 16.5458L73.5289 16.78L72.3492 18.3619V18.3585ZM72.1656 18.0904L72.3322 18.2329L73.4065 16.797L73.2264 16.668L72.1656 18.0904Z" fill="#342B34"/>
</g>
<path style="mix-blend-mode:screen" d="M72.9818 16.7054C72.9818 16.7054 72.5466 16.5594 72.2236 16.9736C71.904 17.3843 72.4956 17.3164 72.9818 16.7054Z" fill="url(#paint17_radial_17_1943)"/>
<path style="mix-blend-mode:screen" opacity="0.53" d="M72.1896 17.4521C72.1896 17.5098 72.1522 17.5608 72.108 17.5608C72.0638 17.5608 72.0264 17.5098 72.0264 17.4521C72.0264 17.3944 72.0604 17.3435 72.108 17.3435C72.1556 17.3435 72.1896 17.391 72.1896 17.4521Z" fill="url(#paint18_radial_17_1943)"/>
<path style="mix-blend-mode:multiply" d="M82.1303 39.504C82.1303 40.1422 81.6271 40.6582 81.005 40.6582C80.3828 40.6582 79.8831 40.1389 79.8831 39.504C79.8831 38.8692 80.3862 38.3499 81.005 38.3499C81.6237 38.3499 82.1303 38.8658 82.1303 39.504Z" fill="url(#paint19_radial_17_1943)"/>
<path d="M81.8889 39.4497C81.8889 39.9793 81.4707 40.407 80.954 40.407C80.4372 40.407 80.0225 39.9759 80.0225 39.4497C80.0225 38.9236 80.4406 38.4924 80.954 38.4924C81.4673 38.4924 81.8889 38.9236 81.8889 39.4497Z" fill="url(#paint20_radial_17_1943)"/>
<path d="M80.9574 40.4545C80.4202 40.4545 79.9783 40.0064 79.9783 39.4497C79.9783 38.8929 80.4202 38.4482 80.9574 38.4482C81.4945 38.4482 81.9365 38.8997 81.9365 39.4497C81.9365 39.9996 81.4945 40.4545 80.9574 40.4545ZM80.9574 38.5399C80.4678 38.5399 80.0667 38.9507 80.0667 39.4531C80.0667 39.9555 80.4644 40.3696 80.9574 40.3696C81.4503 40.3696 81.8447 39.9589 81.8447 39.4531C81.8447 38.9473 81.4469 38.5399 80.9574 38.5399Z" fill="#342B34"/>
<path style="mix-blend-mode:multiply" d="M81.6815 38.8455C81.7087 38.9439 81.7257 39.0457 81.7257 39.1544C81.7257 39.6839 81.345 40.1151 80.8758 40.1151C80.4508 40.1151 80.0973 39.762 80.0361 39.3071C80.0293 39.3581 80.0259 39.4056 80.0259 39.4531C80.0259 39.9827 80.444 40.4104 80.9574 40.4104C81.4708 40.4104 81.8923 39.9793 81.8923 39.4531C81.8923 39.2257 81.8107 39.0152 81.6815 38.8489V38.8455Z" fill="url(#paint21_radial_17_1943)"/>
<g style="mix-blend-mode:multiply">
<path d="M80.4814 40.2747L81.6101 38.7674L81.3585 38.5875L80.2502 40.0778L80.4814 40.2747Z" fill="url(#paint22_radial_17_1943)"/>
<path d="M80.4882 40.3391L80.1924 40.0845L81.3517 38.5264L81.6747 38.7606L80.4916 40.3425L80.4882 40.3391ZM80.3114 40.0709L80.478 40.2101L81.5523 38.7776L81.3687 38.6452L80.3114 40.0709Z" fill="#342B34"/>
</g>
<path style="mix-blend-mode:screen" d="M81.1206 38.686C81.1206 38.686 80.6855 38.54 80.3659 38.9507C80.0463 39.3615 80.6413 39.297 81.1206 38.686Z" fill="url(#paint23_radial_17_1943)"/>
<path style="mix-blend-mode:screen" opacity="0.53" d="M80.3319 39.4294C80.3319 39.4905 80.2945 39.538 80.2503 39.538C80.2061 39.538 80.1687 39.4905 80.1687 39.4294C80.1687 39.3716 80.2027 39.3275 80.2503 39.3275C80.2979 39.3275 80.3319 39.375 80.3319 39.4294Z" fill="url(#paint24_radial_17_1943)"/>
<path style="mix-blend-mode:multiply" d="M70.7719 68.7085C70.7719 69.3467 70.2687 69.8627 69.6466 69.8627C69.0244 69.8627 68.5247 69.3467 68.5247 68.7085C68.5247 68.0703 69.0278 67.5543 69.6466 67.5543C70.2653 67.5543 70.7719 68.0737 70.7719 68.7085Z" fill="url(#paint25_radial_17_1943)"/>
<path d="M70.5305 68.6541C70.5305 69.1871 70.1123 69.6148 69.599 69.6148C69.0856 69.6148 68.6641 69.1871 68.6641 68.6541C68.6641 68.1211 69.0856 67.7002 69.599 67.7002C70.1123 67.7002 70.5305 68.1279 70.5305 68.6541Z" fill="url(#paint26_radial_17_1943)"/>
<path d="M69.599 69.659C69.0618 69.659 68.6199 69.2109 68.6199 68.6542C68.6199 68.0974 69.0584 67.6561 69.599 67.6561C70.1395 67.6561 70.5747 68.1042 70.5747 68.6542C70.5747 69.2041 70.1361 69.659 69.599 69.659ZM69.599 67.7444C69.1094 67.7444 68.7083 68.1551 68.7083 68.6542C68.7083 69.1532 69.106 69.5741 69.599 69.5741C70.0919 69.5741 70.4863 69.16 70.4863 68.6542C70.4863 68.1484 70.0885 67.7444 69.599 67.7444Z" fill="#342B34"/>
<path style="mix-blend-mode:multiply" d="M70.3231 68.0533C70.3503 68.1518 70.3673 68.2536 70.3673 68.3623C70.3673 68.8918 69.9865 69.3196 69.514 69.3196C69.089 69.3196 68.7388 68.9699 68.6708 68.515C68.6674 68.5625 68.6606 68.6101 68.6606 68.6576C68.6606 69.1906 69.0822 69.6183 69.5956 69.6183C70.1089 69.6183 70.5271 69.1906 70.5271 68.6576C70.5271 68.4302 70.4489 68.2197 70.3197 68.0567L70.3231 68.0533Z" fill="url(#paint27_radial_17_1943)"/>
<g style="mix-blend-mode:multiply">
<path d="M69.123 69.4825L70.2517 67.9719L70.0001 67.792L68.8918 69.2823L69.123 69.4825Z" fill="url(#paint28_radial_17_1943)"/>
<path d="M69.1298 69.5436L68.834 69.289L69.9933 67.7308L70.3163 67.9617L70.2925 67.999L69.1332 69.5436H69.1298ZM68.953 69.2754L69.1162 69.4146L70.1905 67.9786L70.0103 67.8496L68.953 69.2754Z" fill="#342B34"/>
</g>
<path style="mix-blend-mode:screen" d="M69.7623 67.8937C69.7623 67.8937 69.3305 67.7478 69.0109 68.1619C68.688 68.5693 69.2795 68.5082 69.7623 67.8937Z" fill="url(#paint29_radial_17_1943)"/>
<path style="mix-blend-mode:screen" opacity="0.53" d="M68.9735 68.6372C68.9735 68.6983 68.9395 68.7425 68.8919 68.7425C68.8443 68.7425 68.8137 68.6983 68.8137 68.6372C68.8137 68.5761 68.8477 68.532 68.8919 68.532C68.9361 68.532 68.9735 68.5795 68.9735 68.6372Z" fill="url(#paint30_radial_17_1943)"/>
<path style="mix-blend-mode:multiply" d="M43.734 79.6496C43.734 80.2878 43.2343 80.8037 42.6121 80.8037C41.99 80.8037 41.4902 80.2878 41.4902 79.6496C41.4902 79.0114 41.9968 78.4954 42.6121 78.4954C43.2275 78.4954 43.734 79.0114 43.734 79.6496Z" fill="url(#paint31_radial_17_1943)"/>
<path d="M43.4927 79.5987C43.4927 80.1282 43.0779 80.556 42.5612 80.556C42.0444 80.556 41.6296 80.1282 41.6296 79.5987C41.6296 79.0691 42.0478 78.6414 42.5612 78.6414C43.0745 78.6414 43.4927 79.0691 43.4927 79.5987Z" fill="url(#paint32_radial_17_1943)"/>
<path d="M42.5612 80.6001C42.0206 80.6001 41.5854 80.1486 41.5854 79.5953C41.5854 79.0419 42.0206 78.5905 42.5612 78.5905C43.1017 78.5905 43.5369 79.0419 43.5369 79.5953C43.5369 80.1486 43.1017 80.6001 42.5612 80.6001ZM42.5612 78.6821C42.0716 78.6821 41.6704 79.0929 41.6704 79.5987C41.6704 80.1045 42.0682 80.5152 42.5612 80.5152C43.0541 80.5152 43.4519 80.1045 43.4519 79.5987C43.4519 79.0929 43.0507 78.6821 42.5612 78.6821Z" fill="#342B34"/>
<path style="mix-blend-mode:multiply" d="M43.2853 78.991C43.3125 79.0894 43.3295 79.1913 43.3295 79.3033C43.3295 79.8328 42.9487 80.2606 42.4795 80.2606C42.0546 80.2606 41.701 79.9109 41.6364 79.4526C41.6296 79.5002 41.6262 79.5477 41.6262 79.5952C41.6262 80.1248 42.0444 80.5525 42.5577 80.5525C43.0711 80.5525 43.4893 80.1248 43.4893 79.5952C43.4893 79.3644 43.4111 79.1573 43.2819 78.991H43.2853Z" fill="url(#paint33_radial_17_1943)"/>
<g style="mix-blend-mode:multiply">
<path d="M42.0852 80.4236L43.2139 78.913L42.9623 78.733L41.854 80.2233L42.0852 80.4236Z" fill="url(#paint34_radial_17_1943)"/>
<path d="M42.0919 80.4846L41.7961 80.23L42.9554 78.6719L43.2784 78.9027L42.0953 80.4846H42.0919ZM41.9151 80.2165L42.0783 80.3556L43.1526 78.9197L42.9758 78.7907L41.9151 80.2165Z" fill="#342B34"/>
</g>
<path style="mix-blend-mode:screen" d="M42.7243 78.8349C42.7243 78.8349 42.2891 78.6889 41.9696 79.0997C41.6466 79.5104 42.2415 79.4459 42.7243 78.8349Z" fill="url(#paint35_radial_17_1943)"/>
<path style="mix-blend-mode:screen" opacity="0.53" d="M41.9356 79.5783C41.9356 79.6394 41.9016 79.6835 41.8541 79.6835C41.8065 79.6835 41.7725 79.6394 41.7725 79.5783C41.7725 79.5172 41.8065 79.473 41.8541 79.473C41.9016 79.473 41.9356 79.5172 41.9356 79.5783Z" fill="url(#paint36_radial_17_1943)"/>
<path style="mix-blend-mode:multiply" d="M15.088 67.707C15.088 68.3419 14.5815 68.8578 13.9627 68.8578C13.344 68.8578 12.8408 68.3419 12.8408 67.707C12.8408 67.0722 13.344 66.5529 13.9627 66.5529C14.5815 66.5529 15.088 67.0688 15.088 67.707Z" fill="url(#paint37_radial_17_1943)"/>
<path d="M14.8467 67.6527C14.8467 68.1823 14.4285 68.6134 13.9117 68.6134C13.395 68.6134 12.9802 68.1857 12.9802 67.6527C12.9802 67.1198 13.3984 66.6954 13.9117 66.6954C14.4251 66.6954 14.8467 67.1266 14.8467 67.6527Z" fill="url(#paint38_radial_17_1943)"/>
<path d="M13.9117 68.6541C13.3746 68.6541 12.9326 68.206 12.9326 67.6527C12.9326 67.0993 13.3712 66.6512 13.9117 66.6512C14.4523 66.6512 14.8908 67.0993 14.8908 67.6527C14.8908 68.206 14.4523 68.6541 13.9117 68.6541ZM13.9117 66.7395C13.4222 66.7395 13.021 67.1503 13.021 67.6561C13.021 68.1619 13.4188 68.5692 13.9117 68.5692C14.4047 68.5692 14.8025 68.1585 14.8025 67.6561C14.8025 67.1537 14.4047 66.7395 13.9117 66.7395Z" fill="#342B34"/>
<path style="mix-blend-mode:multiply" d="M14.6359 67.0519C14.6631 67.1469 14.6801 67.2521 14.6801 67.3574C14.6801 67.8869 14.2993 68.3181 13.8302 68.3181C13.4052 68.3181 13.055 67.9684 12.9904 67.5101C12.9836 67.5543 12.9802 67.6052 12.9802 67.6527C12.9802 68.1823 13.3984 68.6134 13.9117 68.6134C14.4251 68.6134 14.8467 68.1857 14.8467 67.6527C14.8467 67.4253 14.7685 67.2148 14.6359 67.0485V67.0519Z" fill="url(#paint39_radial_17_1943)"/>
<g style="mix-blend-mode:multiply">
<path d="M13.4392 68.4777L14.5679 66.9704L14.3163 66.7905L13.208 68.2774L13.4392 68.4777Z" fill="url(#paint40_radial_17_1943)"/>
<path d="M13.4459 68.5422L13.1467 68.2876L14.306 66.7328L14.629 66.9636L13.4459 68.5455V68.5422ZM13.2691 68.274L13.4323 68.4165L14.5066 66.9806L14.3264 66.8516L13.2657 68.274H13.2691Z" fill="#342B34"/>
</g>
<path style="mix-blend-mode:screen" d="M14.0782 66.889C14.0782 66.889 13.6431 66.743 13.3235 67.1538C13.0039 67.5645 13.5955 67.5 14.0782 66.889Z" fill="url(#paint41_radial_17_1943)"/>
<path style="mix-blend-mode:screen" opacity="0.53" d="M13.2897 67.6358C13.2897 67.6935 13.2523 67.741 13.2081 67.741C13.1639 67.741 13.1265 67.6935 13.1265 67.6358C13.1265 67.578 13.1639 67.5305 13.2081 67.5305C13.2523 67.5305 13.2897 67.5747 13.2897 67.6358Z" fill="url(#paint42_radial_17_1943)"/>
<path style="mix-blend-mode:multiply" d="M4.63394 41.0078C4.63394 41.646 4.13419 42.162 3.51204 42.162C2.88989 42.162 2.39014 41.6426 2.39014 41.0078C2.39014 40.373 2.89329 39.8536 3.51204 39.8536C4.13079 39.8536 4.63394 40.373 4.63394 41.0078Z" fill="url(#paint43_radial_17_1943)"/>
<path d="M4.39256 40.9569C4.39256 41.4865 3.9778 41.9142 3.45764 41.9142C2.93749 41.9142 2.52612 41.4865 2.52612 40.9569C2.52612 40.4273 2.94769 39.9962 3.45764 39.9962C3.9676 39.9962 4.39256 40.4239 4.39256 40.9569Z" fill="url(#paint44_radial_17_1943)"/>
<path d="M3.45765 41.9584C2.9205 41.9584 2.48193 41.5069 2.48193 40.9536C2.48193 40.4002 2.9205 39.9487 3.45765 39.9487C3.9948 39.9487 4.43677 40.4002 4.43677 40.9536C4.43677 41.5069 3.9982 41.9584 3.45765 41.9584ZM3.45765 40.0404C2.97149 40.0404 2.57033 40.4511 2.57033 40.957C2.57033 41.4628 2.96809 41.8735 3.45765 41.8735C3.94721 41.8735 4.34837 41.4628 4.34837 40.957C4.34837 40.4511 3.95061 40.0404 3.45765 40.0404Z" fill="#342B34"/>
<path style="mix-blend-mode:multiply" d="M4.18516 40.3527C4.21236 40.4511 4.22936 40.5529 4.22936 40.6616C4.22936 41.1945 3.84859 41.6223 3.37603 41.6223C2.95107 41.6223 2.6009 41.2726 2.5363 40.8143C2.5295 40.8619 2.52271 40.9094 2.52271 40.9603C2.52271 41.4899 2.94427 41.9176 3.45423 41.9176C3.96418 41.9176 4.38915 41.4899 4.38915 40.9603C4.38915 40.7295 4.31095 40.5224 4.18176 40.3561L4.18516 40.3527Z" fill="url(#paint45_radial_17_1943)"/>
<g style="mix-blend-mode:multiply">
<path d="M2.98509 41.7819L4.11379 40.2746L3.86221 40.0913L2.75391 41.585L2.98509 41.7819Z" fill="url(#paint46_radial_17_1943)"/>
<path d="M2.99182 41.8464L2.69604 41.5918L3.85535 40.037L4.17492 40.2678L2.99182 41.8497V41.8464ZM2.81503 41.5782L2.97822 41.7174L4.05253 40.2814L3.87234 40.149L2.81503 41.5748V41.5782Z" fill="#342B34"/>
</g>
<path style="mix-blend-mode:screen" d="M3.62076 40.193C3.62076 40.193 3.18899 40.0471 2.86942 40.4612C2.54985 40.872 3.1414 40.8041 3.62076 40.193Z" fill="url(#paint47_radial_17_1943)"/>
<path style="mix-blend-mode:screen" opacity="0.53" d="M2.83555 40.9365C2.83555 40.9942 2.80155 41.0418 2.75736 41.0418C2.71316 41.0418 2.67236 40.9942 2.67236 40.9365C2.67236 40.8788 2.70976 40.8313 2.75736 40.8313C2.80495 40.8313 2.83555 40.8754 2.83555 40.9365Z" fill="url(#paint48_radial_17_1943)"/>
<path style="mix-blend-mode:multiply" d="M16.9987 13.236C16.9987 13.8708 16.4955 14.3868 15.8768 14.3868C15.258 14.3868 14.7549 13.8708 14.7549 13.236C14.7549 12.6012 15.258 12.0818 15.8768 12.0818C16.4955 12.0818 16.9987 12.5978 16.9987 13.236Z" fill="url(#paint49_radial_17_1943)"/>
<path d="M16.7573 13.1783C16.7573 13.7079 16.3391 14.139 15.8224 14.139C15.3056 14.139 14.8909 13.7079 14.8909 13.1783C14.8909 12.6488 15.309 12.2177 15.8224 12.2177C16.3357 12.2177 16.7573 12.6488 16.7573 13.1783Z" fill="url(#paint50_radial_17_1943)"/>
<path d="M15.8224 14.1831C15.2852 14.1831 14.8467 13.7316 14.8467 13.1783C14.8467 12.625 15.2852 12.1769 15.8224 12.1769C16.3596 12.1769 16.8015 12.625 16.8015 13.1783C16.8015 13.7316 16.363 14.1831 15.8224 14.1831ZM15.8224 12.2651C15.3328 12.2651 14.9351 12.6793 14.9351 13.1817C14.9351 13.6841 15.3362 14.0983 15.8224 14.0983C16.3086 14.0983 16.7131 13.6875 16.7131 13.1817C16.7131 12.6759 16.3154 12.2651 15.8224 12.2651Z" fill="#342B34"/>
<path style="mix-blend-mode:multiply" d="M16.5465 12.574C16.5771 12.6724 16.5941 12.7777 16.5941 12.8829C16.5941 13.4159 16.2134 13.8436 15.7442 13.8436C15.3158 13.8436 14.9691 13.4939 14.9045 13.0357C14.8977 13.0866 14.8909 13.1307 14.8909 13.1816C14.8909 13.7112 15.309 14.1423 15.8224 14.1423C16.3357 14.1423 16.7573 13.7112 16.7573 13.1816C16.7573 12.9542 16.6791 12.7437 16.5465 12.5774V12.574Z" fill="url(#paint51_radial_17_1943)"/>
<g style="mix-blend-mode:multiply">
<path d="M15.3464 14.0066L16.4751 12.496L16.2236 12.316L15.1187 13.8063L15.3464 14.0066Z" fill="url(#paint52_radial_17_1943)"/>
<path d="M15.3565 14.0676L15.0574 13.813L16.2167 12.2549L16.5362 12.4857L15.3565 14.0676ZM15.1798 13.7995L15.3429 13.942L16.4207 12.5061L16.2405 12.3771L15.1832 13.7995H15.1798Z" fill="#342B34"/>
</g>
<path style="mix-blend-mode:screen" d="M15.9856 12.4179C15.9856 12.4179 15.5504 12.2719 15.2308 12.6861C14.9146 13.0934 15.5062 13.0289 15.9856 12.4179Z" fill="url(#paint53_radial_17_1943)"/>
<path style="mix-blend-mode:screen" opacity="0.53" d="M15.2003 13.1613C15.2003 13.219 15.1663 13.2665 15.1187 13.2665C15.0711 13.2665 15.0371 13.219 15.0371 13.1613C15.0371 13.1036 15.0745 13.056 15.1187 13.056C15.1629 13.056 15.2003 13.1036 15.2003 13.1613Z" fill="url(#paint54_radial_17_1943)"/>
<path d="M77.8943 41.4967C77.8943 60.8124 62.0176 76.4789 42.4353 76.4789C22.853 76.4789 6.98315 60.8124 6.98315 41.4967C6.98315 22.1809 22.8564 6.52124 42.4353 6.52124C62.0142 6.52124 77.8943 22.1707 77.8943 41.5001V41.4967Z" fill="url(#paint55_radial_17_1943)"/>
<mask id="mask0_17_1943" style="mask-type:luminance" maskUnits="userSpaceOnUse" x="6" y="6" width="72" height="71">
<path d="M77.8943 41.4967C77.8943 60.8124 62.0176 76.4789 42.4353 76.4789C22.853 76.4789 6.98315 60.8124 6.98315 41.4967C6.98315 22.1809 22.8564 6.52124 42.4353 6.52124C62.0142 6.52124 77.8943 22.1707 77.8943 41.5001V41.4967Z" fill="white"/>
</mask>
<g mask="url(#mask0_17_1943)">
<path d="M64.6389 22.8327C63.9317 22.4016 63.5952 22.1843 62.9152 21.7566C63.109 21.1931 63.2042 20.9045 63.3674 20.3512C62.8132 20.5243 62.5413 20.6262 61.9735 20.8197C61.5553 20.1102 61.3548 19.7503 60.9468 19.0341C60.9706 19.6994 60.9706 20.0321 60.9536 20.7144C60.2363 20.3919 59.8827 20.2256 59.179 19.9031C59.7025 20.5617 59.9711 20.8876 60.5014 21.5325C60.0255 21.855 59.7773 22.0282 59.2775 22.3575C59.9745 22.4865 60.3281 22.5509 61.025 22.6799C61.11 23.4132 61.1542 23.7696 61.2256 24.5063C61.5995 23.9937 61.7797 23.7527 62.1299 23.257C62.7486 23.8307 63.0716 24.1227 63.6972 24.6896C63.415 23.9597 63.279 23.5931 62.9832 22.8531C63.6462 22.8395 63.9759 22.8395 64.6389 22.8395V22.8327Z" fill="white"/>
<path d="M77.6565 35.3047C76.9426 34.9313 76.5924 34.7548 75.8819 34.3814C76.1913 33.8314 76.3477 33.5599 76.6366 33.0269C75.9635 33.2272 75.6337 33.329 74.947 33.5429C74.59 32.8843 74.4098 32.5516 74.0359 31.8931C73.9577 32.5245 73.9135 32.8504 73.8149 33.492C73.0295 33.2204 72.6522 33.0778 71.8736 32.8062C72.4074 33.4071 72.6624 33.7092 73.1825 34.2965C72.5978 34.6258 72.3054 34.7989 71.7104 35.135C72.4788 35.2266 72.8596 35.264 73.6211 35.3556C73.6211 36.0448 73.6143 36.391 73.5837 37.0835C74.0733 36.5811 74.3078 36.3333 74.7702 35.8445C75.3889 36.3605 75.6881 36.6117 76.2865 37.1141C76.1063 36.4385 76.0077 36.0889 75.7901 35.4134C76.538 35.3624 76.9018 35.3421 77.6565 35.3047Z" fill="white"/>
<path d="M57.0542 44.0359C56.3913 43.6489 56.0683 43.4554 55.4087 43.0616C55.8337 42.4234 56.0343 42.1077 56.4491 41.4627C55.7181 41.7343 55.3442 41.8768 54.5962 42.1484C54.3412 41.4253 54.229 41.0519 53.9775 40.3289C53.7599 41.0519 53.6545 41.4253 53.4233 42.1484C52.6754 41.8768 52.3116 41.741 51.5569 41.4695C51.9886 42.1077 52.2198 42.437 52.6414 43.0785C51.9886 43.4791 51.6623 43.6726 51.0095 44.0732C51.7779 44.1445 52.1586 44.1818 52.927 44.2531C52.825 45.0305 52.7774 45.4141 52.6686 46.1813C53.2159 45.6144 53.4981 45.3224 54.0319 44.7555C54.5792 45.3224 54.8512 45.6008 55.3985 46.1541C55.2966 45.3937 55.2456 45.0067 55.1402 44.2293C55.9085 44.1581 56.2825 44.1139 57.0508 44.0359H57.0542Z" fill="white"/>
<path d="M35.0071 58.2392C33.6065 57.3362 32.9129 56.8847 31.4748 55.9851C32.267 54.651 32.6749 53.9857 33.5215 52.6346C31.9746 53.1811 31.1995 53.4459 29.6798 53.9551C29.0712 52.3868 28.7789 51.6094 28.2111 50.0444C27.7861 51.572 27.5822 52.3325 27.215 53.8397C25.6137 53.1879 24.8012 52.8654 23.1727 52.2204C24.1927 53.5919 24.7264 54.2844 25.7531 55.6796C24.485 56.4197 23.8697 56.7693 22.6526 57.4754C24.2471 57.7605 25.0426 57.9031 26.6234 58.1713C26.6268 59.777 26.6506 60.5747 26.7322 62.1601C27.5958 61.0805 28.0445 60.5306 29.0032 59.4104C30.2577 60.68 30.8799 61.3182 32.0902 62.6014C31.6924 60.938 31.4952 60.1097 31.1247 58.4632C32.6715 58.392 33.4501 58.3376 35.0037 58.2426L35.0071 58.2392Z" fill="white"/>
<path d="M66.587 58.8842C66.077 58.5956 65.8187 58.4395 65.3019 58.1442C65.8323 57.4924 66.0974 57.1631 66.6278 56.5249C65.8697 56.8542 65.4957 57.0239 64.7444 57.3634C64.6628 56.6878 64.6254 56.3585 64.5166 55.6864C64.1664 56.3959 63.9998 56.7625 63.6394 57.4788C62.9867 57.2989 62.6569 57.2004 62.0008 56.9967C62.3034 57.5705 62.4394 57.8556 62.7215 58.4327C62.0382 58.8842 61.6948 59.0981 61.0115 59.5428C61.7084 59.5428 62.062 59.536 62.7419 59.5292C62.4801 60.276 62.351 60.6562 62.0858 61.4064C62.7113 60.8056 63.0207 60.5035 63.6462 59.8924C64.0202 60.3812 64.2004 60.6087 64.5506 61.0772C64.6594 60.3677 64.6934 60.001 64.7716 59.2848C65.4991 59.1354 65.8561 59.0471 66.5802 58.8808L66.587 58.8842Z" fill="white"/>
<path d="M68.756 45.9437C68.2936 45.6551 68.0658 45.5125 67.5899 45.2172C67.1105 45.5567 66.8657 45.7332 66.3898 46.0794C66.5836 45.5567 66.6787 45.2919 66.8657 44.7623C66.4 44.4602 66.1688 44.3074 65.686 44.0087C66.2776 43.9883 66.57 43.9713 67.1581 43.9442C67.3451 43.4214 67.4335 43.1566 67.5967 42.6406C67.7837 43.1498 67.8856 43.3976 68.0624 43.9102C68.6438 43.8797 68.9396 43.8695 69.5277 43.8457C69.0517 44.1818 68.8138 44.3481 68.3276 44.691C68.5078 45.1934 68.586 45.4446 68.7526 45.947L68.756 45.9437Z" fill="white"/>
<path d="M49.024 41.147C32.6612 40.536 16.3222 39.6398 0.000244141 38.4279C0.581594 27.66 4.0153 18.2635 9.55683 9.06728C22.9007 6.97955 36.2479 6.20556 49.7482 6.8166C49.6972 18.2635 49.4524 29.7137 49.024 41.147Z" fill="url(#paint56_radial_17_1943)"/>
<path d="M49.7482 8.13378V6.81325C47.8817 6.7148 46.9468 6.67067 45.0634 6.61975C38.7059 11.8476 32.0629 16.6748 25.2465 21.3018C20.7283 17.2757 16.1829 13.2292 12.2324 8.63959C11.1581 8.80253 10.6243 8.89079 9.55683 9.06392C8.85988 10.1604 8.53351 10.7171 7.89437 11.8204C12.0284 16.169 16.5908 20.1068 21.1328 24.0311C14.2314 28.4849 7.21103 32.752 0.0614389 36.8121C0.0308415 37.4672 0.013843 37.7795 0.000244141 38.4245C2.03327 38.5841 3.05658 38.6486 5.09301 38.798C11.6136 34.9348 18.0357 30.9291 24.3728 26.7774C30.0231 31.5164 35.721 36.1942 41.4189 40.8551C43.9483 40.957 46.4947 41.0486 49.0206 41.1437C42.1022 35.5255 35.194 29.8665 28.4252 24.0684C35.1668 19.472 41.7555 14.6923 48.1061 9.55955C48.7793 8.97566 49.0954 8.69051 49.7448 8.13039L49.7482 8.13378Z" fill="white"/>
<path d="M9.47857 9.18945C9.07401 9.83444 8.87342 10.1569 8.48926 10.8019C12.6301 15.3135 17.2775 19.343 21.8841 23.3555C22.853 23.3555 23.3392 23.3555 24.3251 23.3623C19.1813 18.8779 13.9356 14.3765 9.47857 9.18945Z" fill="#F02300"/>
<path d="M47.4057 41.0962C40.2425 35.2573 33.0997 29.4015 26.1065 23.3793C25.1274 23.3725 24.6378 23.3657 23.6655 23.3657C30.6383 29.3539 37.7437 35.1792 44.8559 40.9977C45.8826 41.0384 46.3858 41.0554 47.4057 41.0962Z" fill="#F02300"/>
<path d="M46.7496 6.67065C47.5621 6.708 47.9734 6.72836 48.7996 6.7691C41.7656 12.6725 34.3678 18.0666 26.7695 23.2401C25.804 23.2401 25.311 23.2333 24.3489 23.2333C32.0662 18.0394 39.5966 12.6249 46.753 6.67065H46.7496Z" fill="#F02300"/>
<path d="M0.86377 38.4992C9.17946 33.706 17.3286 28.6716 25.3349 23.3691C26.3038 23.3759 26.7899 23.3759 27.7623 23.3929C19.7933 28.7361 11.6748 33.8214 3.39315 38.6792C2.38004 38.6079 1.86668 38.5637 0.86377 38.5026V38.4992Z" fill="#F02300"/>
<path d="M49.6189 20.1C43.1118 19.8182 36.5946 19.6654 30.074 19.6451C30.7641 15.2999 31.6242 10.9818 32.6475 6.69775C30.2881 6.79959 29.1152 6.86409 26.7558 7.03722C25.3926 11.1889 24.2604 15.4119 23.3493 19.6824C16.8117 19.7877 10.291 20.0117 3.76021 20.3681C2.91708 22.5136 2.19974 24.7235 1.61499 26.9606C8.42801 26.9335 15.2342 26.9538 22.0438 27.0387C21.4795 31.3092 21.0987 35.539 20.9049 39.8197C23.3051 39.9656 25.6985 40.0946 28.0953 40.2236C28.2823 35.8513 28.6019 31.5129 29.0506 27.1711C35.8535 27.3171 42.6495 27.5275 49.4523 27.8025C49.5169 25.2395 49.5679 22.6596 49.6189 20.0932V20.1Z" fill="white"/>
<path d="M49.5815 21.6411C42.5645 21.339 35.5237 21.1829 28.4829 21.1387C29.292 16.3047 30.2847 11.5182 31.4644 6.74866C30.0468 6.81316 29.3396 6.86408 27.9287 6.95234C26.5349 11.6404 25.3654 16.3488 24.4134 21.1455C17.3624 21.1998 10.3114 21.3797 3.26725 21.6819C2.6893 23.2604 2.43092 24.0581 1.97876 25.6435C9.20654 25.5416 16.4343 25.5213 23.6655 25.5858C22.9924 30.3587 22.5606 35.0977 22.343 39.9113C24.0701 40.0132 24.937 40.0573 26.6572 40.1489C26.8714 35.2844 27.2522 30.4707 27.8437 25.6469C35.0681 25.7759 42.2823 25.9761 49.4931 26.2715C49.5441 24.4214 49.5577 23.5014 49.5883 21.6445L49.5815 21.6411Z" fill="#F02300"/>
</g>
<path style="mix-blend-mode:screen" opacity="0.5" d="M77.8943 41.4967C77.8943 60.8124 62.0176 76.4789 42.4353 76.4789C22.853 76.4789 6.98315 60.8124 6.98315 41.4967C6.98315 22.1809 22.8564 6.52124 42.4353 6.52124C62.0142 6.52124 77.8943 22.1707 77.8943 41.5001V41.4967Z" fill="url(#paint57_radial_17_1943)"/>
<path style="mix-blend-mode:overlay" opacity="0.6" d="M77.4829 41.3473C77.4829 60.0825 61.9021 75.2839 42.6903 75.2839C23.4786 75.2839 7.89429 60.0825 7.89429 41.3473C7.89429 22.612 23.4684 7.41064 42.6903 7.41064C61.9123 7.41064 77.4829 22.6019 77.4829 41.3473Z" fill="url(#paint58_linear_17_1943)"/>
<path style="mix-blend-mode:screen" d="M71.0472 30.1924C71.0472 41.9957 58.3526 51.5823 42.6902 51.5823C27.0277 51.5823 14.3264 41.9991 14.3264 30.1924C14.3264 18.3857 27.0209 8.78894 42.6902 8.78894C58.3594 8.78894 71.0472 18.3687 71.0472 30.1924Z" fill="url(#paint59_linear_17_1943)"/>
</g>
<defs>
<radialGradient id="paint0_radial_17_1943" cx="0" cy="0" r="1" gradientUnits="userSpaceOnUse" gradientTransform="translate(42.5881 41.5001) scale(42.9179 42.8545)">
<stop offset="0.85" stop-color="#27282C"/>
<stop offset="0.87" stop-color="#53565A"/>
<stop offset="0.88" stop-color="#787C80"/>
<stop offset="0.89" stop-color="#92979B"/>
<stop offset="0.91" stop-color="#A2A8AC"/>
<stop offset="0.92" stop-color="#A8AEB2"/>
<stop offset="0.98" stop-color="white"/>
</radialGradient>
<radialGradient id="paint1_radial_17_1943" cx="0" cy="0" r="1" gradientUnits="userSpaceOnUse" gradientTransform="translate(42.5881 41.5) scale(42.9213 42.8579)">
<stop offset="0.85" stop-color="#27282C"/>
<stop offset="0.87" stop-color="#53565A"/>
<stop offset="0.88" stop-color="#787C80"/>
<stop offset="0.89" stop-color="#92979B"/>
<stop offset="0.91" stop-color="#A2A8AC"/>
<stop offset="0.92" stop-color="#A8AEB2"/>
<stop offset="0.98" stop-color="white"/>
</radialGradient>
<linearGradient id="paint2_linear_17_1943" x1="12.5347" y1="12.8625" x2="82.7958" y2="80.0113" gradientUnits="userSpaceOnUse">
<stop offset="0.15" stop-color="white"/>
<stop offset="0.16" stop-color="#CECECE"/>
<stop offset="0.18" stop-color="#A3A3A3"/>
<stop offset="0.2" stop-color="#7C7C7C"/>
<stop offset="0.22" stop-color="#5A5A5A"/>
<stop offset="0.24" stop-color="#3E3E3E"/>
<stop offset="0.26" stop-color="#272727"/>
<stop offset="0.29" stop-color="#151515"/>
<stop offset="0.32" stop-color="#090909"/>
<stop offset="0.37" stop-color="#020202"/>
<stop offset="0.47"/>
<stop offset="0.58" stop-color="#6A6A6A"/>
<stop offset="0.72" stop-color="white"/>
<stop offset="1"/>
</linearGradient>
<radialGradient id="paint3_radial_17_1943" cx="0" cy="0" r="1" gradientUnits="userSpaceOnUse" gradientTransform="translate(42.588 41.5) scale(42.9213 42.8579)">
<stop offset="0.85" stop-color="#27282C"/>
<stop offset="0.87" stop-color="#53565A"/>
<stop offset="0.88" stop-color="#787C80"/>
<stop offset="0.89" stop-color="#92979B"/>
<stop offset="0.91" stop-color="#A2A8AC"/>
<stop offset="0.92" stop-color="#A8AEB2"/>
<stop offset="0.98" stop-color="white"/>
</radialGradient>
<radialGradient id="paint4_radial_17_1943" cx="0" cy="0" r="1" gradientUnits="userSpaceOnUse" gradientTransform="translate(42.588 41.5) scale(42.0782 42.016)">
<stop offset="0.85" stop-color="#27282C"/>
<stop offset="0.87" stop-color="#53565A"/>
<stop offset="0.88" stop-color="#787C80"/>
<stop offset="0.89" stop-color="#92979B"/>
<stop offset="0.91" stop-color="#A2A8AC"/>
<stop offset="0.92" stop-color="#A8AEB2"/>
<stop offset="0.98" stop-color="white"/>
</radialGradient>
<radialGradient id="paint5_radial_17_1943" cx="0" cy="0" r="1" gradientUnits="userSpaceOnUse" gradientTransform="translate(42.5881 41.5) scale(35.7819 35.729)">
<stop offset="0.43" stop-color="white"/>
<stop offset="0.84" stop-color="#A8AEB2"/>
<stop offset="0.86" stop-color="#A2A8AC"/>
<stop offset="0.89" stop-color="#92979B"/>
<stop offset="0.93" stop-color="#787C80"/>
<stop offset="0.96" stop-color="#53565A"/>
<stop offset="1" stop-color="#27282C"/>
</radialGradient>
<radialGradient id="paint6_radial_17_1943" cx="0" cy="0" r="1" gradientUnits="userSpaceOnUse" gradientTransform="translate(42.5881 41.5) scale(35.7819 35.729)">
<stop offset="0.43" stop-color="white"/>
<stop offset="0.84" stop-color="#A8AEB2"/>
<stop offset="0.86" stop-color="#A2A8AC"/>
<stop offset="0.89" stop-color="#92979B"/>
<stop offset="0.93" stop-color="#787C80"/>
<stop offset="0.96" stop-color="#53565A"/>
<stop offset="1" stop-color="#27282C"/>
</radialGradient>
<radialGradient id="paint7_radial_17_1943" cx="0" cy="0" r="1" gradientUnits="userSpaceOnUse" gradientTransform="translate(43.9551 2.01603) scale(3.15153 2.54897)">
<stop offset="0.4" stop-color="white"/>
<stop offset="0.53" stop-color="#EFE7E7"/>
<stop offset="0.7" stop-color="#D7C2C2"/>
<stop offset="0.74" stop-color="#D1BCBC"/>
<stop offset="0.79" stop-color="#C0ADAE"/>
<stop offset="0.84" stop-color="#A59396"/>
<stop offset="0.9" stop-color="#7F7075"/>
<stop offset="0.97" stop-color="#4E434B"/>
<stop offset="1" stop-color="#342B34"/>
</radialGradient>
<radialGradient id="paint8_radial_17_1943" cx="0" cy="0" r="1" gradientUnits="userSpaceOnUse" gradientTransform="translate(43.7681 2.13974) scale(2.62117 2.12001)">
<stop offset="0.4" stop-color="white"/>
<stop offset="0.53" stop-color="#EFE7E7"/>
<stop offset="0.7" stop-color="#D7C2C2"/>
<stop offset="0.74" stop-color="#D1BCBC"/>
<stop offset="0.79" stop-color="#C0ADAE"/>
<stop offset="0.84" stop-color="#A59396"/>
<stop offset="0.9" stop-color="#7F7075"/>
<stop offset="0.97" stop-color="#4E434B"/>
<stop offset="1" stop-color="#342B34"/>
</radialGradient>
<radialGradient id="paint9_radial_17_1943" cx="0" cy="0" r="1" gradientUnits="userSpaceOnUse" gradientTransform="translate(43.7681 2.1425) scale(2.61777 2.11726)">
<stop offset="0.4" stop-color="white"/>
<stop offset="0.53" stop-color="#EFE7E7"/>
<stop offset="0.7" stop-color="#D7C2C2"/>
<stop offset="0.74" stop-color="#D1BCBC"/>
<stop offset="0.79" stop-color="#C0ADAE"/>
<stop offset="0.84" stop-color="#A59396"/>
<stop offset="0.9" stop-color="#7F7075"/>
<stop offset="0.97" stop-color="#4E434B"/>
<stop offset="1" stop-color="#342B34"/>
</radialGradient>
<radialGradient id="paint10_radial_17_1943" cx="0" cy="0" r="1" gradientUnits="userSpaceOnUse" gradientTransform="translate(43.5641 2.22505) scale(2.29821 1.85879)">
<stop offset="0.4" stop-color="white"/>
<stop offset="0.53" stop-color="#EFE7E7"/>
<stop offset="0.7" stop-color="#D7C2C2"/>
<stop offset="0.74" stop-color="#D1BCBC"/>
<stop offset="0.79" stop-color="#C0ADAE"/>
<stop offset="0.84" stop-color="#A59396"/>
<stop offset="0.9" stop-color="#7F7075"/>
<stop offset="0.97" stop-color="#4E434B"/>
<stop offset="1" stop-color="#342B34"/>
</radialGradient>
<radialGradient id="paint11_radial_17_1943" cx="0" cy="0" r="1" gradientUnits="userSpaceOnUse" gradientTransform="translate(43.2206 2.25254) scale(0.890724 0.72042)">
<stop offset="0.4" stop-color="white"/>
<stop offset="0.53" stop-color="#EFE7E7"/>
<stop offset="0.7" stop-color="#D7C2C2"/>
<stop offset="0.74" stop-color="#D1BCBC"/>
<stop offset="0.79" stop-color="#C0ADAE"/>
<stop offset="0.84" stop-color="#A59396"/>
<stop offset="0.9" stop-color="#7F7075"/>
<stop offset="0.97" stop-color="#4E434B"/>
<stop offset="1" stop-color="#342B34"/>
</radialGradient>
<radialGradient id="paint12_radial_17_1943" cx="0" cy="0" r="1" gradientUnits="userSpaceOnUse" gradientTransform="translate(42.4762 2.8959) scale(0.343373 0.277719)">
<stop offset="0.4" stop-color="white"/>
<stop offset="0.53" stop-color="#EFE7E7"/>
<stop offset="0.7" stop-color="#D7C2C2"/>
<stop offset="0.74" stop-color="#D1BCBC"/>
<stop offset="0.79" stop-color="#C0ADAE"/>
<stop offset="0.84" stop-color="#A59396"/>
<stop offset="0.9" stop-color="#7F7075"/>
<stop offset="0.97" stop-color="#4E434B"/>
<stop offset="1" stop-color="#342B34"/>
</radialGradient>
<radialGradient id="paint13_radial_17_1943" cx="0" cy="0" r="1" gradientUnits="userSpaceOnUse" gradientTransform="translate(73.6548 16.4657) scale(3.15153 2.54897)">
<stop offset="0.4" stop-color="white"/>
<stop offset="0.53" stop-color="#EFE7E7"/>
<stop offset="0.7" stop-color="#D7C2C2"/>
<stop offset="0.74" stop-color="#D1BCBC"/>
<stop offset="0.79" stop-color="#C0ADAE"/>
<stop offset="0.84" stop-color="#A59396"/>
<stop offset="0.9" stop-color="#7F7075"/>
<stop offset="0.97" stop-color="#4E434B"/>
<stop offset="1" stop-color="#342B34"/>
</radialGradient>
<radialGradient id="paint14_radial_17_1943" cx="0" cy="0" r="1" gradientUnits="userSpaceOnUse" gradientTransform="translate(73.4678 16.5894) scale(2.62118 2.12001)">
<stop offset="0.4" stop-color="white"/>
<stop offset="0.53" stop-color="#EFE7E7"/>
<stop offset="0.7" stop-color="#D7C2C2"/>
<stop offset="0.74" stop-color="#D1BCBC"/>
<stop offset="0.79" stop-color="#C0ADAE"/>
<stop offset="0.84" stop-color="#A59396"/>
<stop offset="0.9" stop-color="#7F7075"/>
<stop offset="0.97" stop-color="#4E434B"/>
<stop offset="1" stop-color="#342B34"/>
</radialGradient>
<radialGradient id="paint15_radial_17_1943" cx="0" cy="0" r="1" gradientUnits="userSpaceOnUse" gradientTransform="translate(73.4678 16.5894) scale(2.61778 2.11726)">
<stop offset="0.4" stop-color="white"/>
<stop offset="0.53" stop-color="#EFE7E7"/>
<stop offset="0.7" stop-color="#D7C2C2"/>
<stop offset="0.74" stop-color="#D1BCBC"/>
<stop offset="0.79" stop-color="#C0ADAE"/>
<stop offset="0.84" stop-color="#A59396"/>
<stop offset="0.9" stop-color="#7F7075"/>
<stop offset="0.97" stop-color="#4E434B"/>
<stop offset="1" stop-color="#342B34"/>
</radialGradient>
<radialGradient id="paint16_radial_17_1943" cx="0" cy="0" r="1" gradientUnits="userSpaceOnUse" gradientTransform="translate(73.2672 16.6719) scale(2.3016 1.86154)">
<stop offset="0.4" stop-color="white"/>
<stop offset="0.53" stop-color="#EFE7E7"/>
<stop offset="0.7" stop-color="#D7C2C2"/>
<stop offset="0.74" stop-color="#D1BCBC"/>
<stop offset="0.79" stop-color="#C0ADAE"/>
<stop offset="0.84" stop-color="#A59396"/>
<stop offset="0.9" stop-color="#7F7075"/>
<stop offset="0.97" stop-color="#4E434B"/>
<stop offset="1" stop-color="#342B34"/>
</radialGradient>
<radialGradient id="paint17_radial_17_1943" cx="0" cy="0" r="1" gradientUnits="userSpaceOnUse" gradientTransform="translate(72.924 16.6994) scale(0.890722 0.72042)">
<stop offset="0.4" stop-color="white"/>
<stop offset="0.53" stop-color="#EFE7E7"/>
<stop offset="0.7" stop-color="#D7C2C2"/>
<stop offset="0.74" stop-color="#D1BCBC"/>
<stop offset="0.79" stop-color="#C0ADAE"/>
<stop offset="0.84" stop-color="#A59396"/>
<stop offset="0.9" stop-color="#7F7075"/>
<stop offset="0.97" stop-color="#4E434B"/>
<stop offset="1" stop-color="#342B34"/>
</radialGradient>
<radialGradient id="paint18_radial_17_1943" cx="0" cy="0" r="1" gradientUnits="userSpaceOnUse" gradientTransform="translate(72.1794 17.3428) scale(0.346767 0.280468)">
<stop offset="0.4" stop-color="white"/>
<stop offset="0.53" stop-color="#EFE7E7"/>
<stop offset="0.7" stop-color="#D7C2C2"/>
<stop offset="0.74" stop-color="#D1BCBC"/>
<stop offset="0.79" stop-color="#C0ADAE"/>
<stop offset="0.84" stop-color="#A59396"/>
<stop offset="0.9" stop-color="#7F7075"/>
<stop offset="0.97" stop-color="#4E434B"/>
<stop offset="1" stop-color="#342B34"/>
</radialGradient>
<radialGradient id="paint19_radial_17_1943" cx="0" cy="0" r="1" gradientUnits="userSpaceOnUse" gradientTransform="translate(81.7971 38.4357) scale(3.15493 2.55171)">
<stop offset="0.4" stop-color="white"/>
<stop offset="0.53" stop-color="#EFE7E7"/>
<stop offset="0.7" stop-color="#D7C2C2"/>
<stop offset="0.74" stop-color="#D1BCBC"/>
<stop offset="0.79" stop-color="#C0ADAE"/>
<stop offset="0.84" stop-color="#A59396"/>
<stop offset="0.9" stop-color="#7F7075"/>
<stop offset="0.97" stop-color="#4E434B"/>
<stop offset="1" stop-color="#342B34"/>
</radialGradient>
<radialGradient id="paint20_radial_17_1943" cx="0" cy="0" r="1" gradientUnits="userSpaceOnUse" gradientTransform="translate(81.6135 38.5595) scale(2.62117 2.12001)">
<stop offset="0.4" stop-color="white"/>
<stop offset="0.53" stop-color="#EFE7E7"/>
<stop offset="0.7" stop-color="#D7C2C2"/>
<stop offset="0.74" stop-color="#D1BCBC"/>
<stop offset="0.79" stop-color="#C0ADAE"/>
<stop offset="0.84" stop-color="#A59396"/>
<stop offset="0.9" stop-color="#7F7075"/>
<stop offset="0.97" stop-color="#4E434B"/>
<stop offset="1" stop-color="#342B34"/>
</radialGradient>
<radialGradient id="paint21_radial_17_1943" cx="0" cy="0" r="1" gradientUnits="userSpaceOnUse" gradientTransform="translate(81.6135 38.5595) scale(2.62118 2.12001)">
<stop offset="0.4" stop-color="white"/>
<stop offset="0.53" stop-color="#EFE7E7"/>
<stop offset="0.7" stop-color="#D7C2C2"/>
<stop offset="0.74" stop-color="#D1BCBC"/>
<stop offset="0.79" stop-color="#C0ADAE"/>
<stop offset="0.84" stop-color="#A59396"/>
<stop offset="0.9" stop-color="#7F7075"/>
<stop offset="0.97" stop-color="#4E434B"/>
<stop offset="1" stop-color="#342B34"/>
</radialGradient>
<radialGradient id="paint22_radial_17_1943" cx="0" cy="0" r="1" gradientUnits="userSpaceOnUse" gradientTransform="translate(81.4095 38.6448) scale(2.3016 1.86154)">
<stop offset="0.4" stop-color="white"/>
<stop offset="0.53" stop-color="#EFE7E7"/>
<stop offset="0.7" stop-color="#D7C2C2"/>
<stop offset="0.74" stop-color="#D1BCBC"/>
<stop offset="0.79" stop-color="#C0ADAE"/>
<stop offset="0.84" stop-color="#A59396"/>
<stop offset="0.9" stop-color="#7F7075"/>
<stop offset="0.97" stop-color="#4E434B"/>
<stop offset="1" stop-color="#342B34"/>
</radialGradient>
<radialGradient id="paint23_radial_17_1943" cx="0" cy="0" r="1" gradientUnits="userSpaceOnUse" gradientTransform="translate(81.0628 38.6722) scale(0.890724 0.72042)">
<stop offset="0.4" stop-color="white"/>
<stop offset="0.53" stop-color="#EFE7E7"/>
<stop offset="0.7" stop-color="#D7C2C2"/>
<stop offset="0.74" stop-color="#D1BCBC"/>
<stop offset="0.79" stop-color="#C0ADAE"/>
<stop offset="0.84" stop-color="#A59396"/>
<stop offset="0.9" stop-color="#7F7075"/>
<stop offset="0.97" stop-color="#4E434B"/>
<stop offset="1" stop-color="#342B34"/>
</radialGradient>
<radialGradient id="paint24_radial_17_1943" cx="0" cy="0" r="1" gradientUnits="userSpaceOnUse" gradientTransform="translate(80.3217 39.3156) scale(0.343367 0.27772)">
<stop offset="0.4" stop-color="white"/>
<stop offset="0.53" stop-color="#EFE7E7"/>
<stop offset="0.7" stop-color="#D7C2C2"/>
<stop offset="0.74" stop-color="#D1BCBC"/>
<stop offset="0.79" stop-color="#C0ADAE"/>
<stop offset="0.84" stop-color="#A59396"/>
<stop offset="0.9" stop-color="#7F7075"/>
<stop offset="0.97" stop-color="#4E434B"/>
<stop offset="1" stop-color="#342B34"/>
</radialGradient>
<radialGradient id="paint25_radial_17_1943" cx="0" cy="0" r="1" gradientUnits="userSpaceOnUse" gradientTransform="translate(70.4387 67.632) scale(3.15493 2.55172)">
<stop offset="0.4" stop-color="white"/>
<stop offset="0.53" stop-color="#EFE7E7"/>
<stop offset="0.7" stop-color="#D7C2C2"/>
<stop offset="0.74" stop-color="#D1BCBC"/>
<stop offset="0.79" stop-color="#C0ADAE"/>
<stop offset="0.84" stop-color="#A59396"/>
<stop offset="0.9" stop-color="#7F7075"/>
<stop offset="0.97" stop-color="#4E434B"/>
<stop offset="1" stop-color="#342B34"/>
</radialGradient>
<radialGradient id="paint26_radial_17_1943" cx="0" cy="0" r="1" gradientUnits="userSpaceOnUse" gradientTransform="translate(70.2551 67.7556) scale(2.61778 2.11727)">
<stop offset="0.4" stop-color="white"/>
<stop offset="0.53" stop-color="#EFE7E7"/>
<stop offset="0.7" stop-color="#D7C2C2"/>
<stop offset="0.74" stop-color="#D1BCBC"/>
<stop offset="0.79" stop-color="#C0ADAE"/>
<stop offset="0.84" stop-color="#A59396"/>
<stop offset="0.9" stop-color="#7F7075"/>
<stop offset="0.97" stop-color="#4E434B"/>
<stop offset="1" stop-color="#342B34"/>
</radialGradient>
<radialGradient id="paint27_radial_17_1943" cx="0" cy="0" r="1" gradientUnits="userSpaceOnUse" gradientTransform="translate(70.2551 67.7557) scale(2.61777 2.11726)">
<stop offset="0.4" stop-color="white"/>
<stop offset="0.53" stop-color="#EFE7E7"/>
<stop offset="0.7" stop-color="#D7C2C2"/>
<stop offset="0.74" stop-color="#D1BCBC"/>
<stop offset="0.79" stop-color="#C0ADAE"/>
<stop offset="0.84" stop-color="#A59396"/>
<stop offset="0.9" stop-color="#7F7075"/>
<stop offset="0.97" stop-color="#4E434B"/>
<stop offset="1" stop-color="#342B34"/>
</radialGradient>
<radialGradient id="paint28_radial_17_1943" cx="0" cy="0" r="1" gradientUnits="userSpaceOnUse" gradientTransform="translate(70.0511 67.8383) scale(2.3016 1.86154)">
<stop offset="0.4" stop-color="white"/>
<stop offset="0.53" stop-color="#EFE7E7"/>
<stop offset="0.7" stop-color="#D7C2C2"/>
<stop offset="0.74" stop-color="#D1BCBC"/>
<stop offset="0.79" stop-color="#C0ADAE"/>
<stop offset="0.84" stop-color="#A59396"/>
<stop offset="0.9" stop-color="#7F7075"/>
<stop offset="0.97" stop-color="#4E434B"/>
<stop offset="1" stop-color="#342B34"/>
</radialGradient>
<radialGradient id="paint29_radial_17_1943" cx="0" cy="0" r="1" gradientUnits="userSpaceOnUse" gradientTransform="translate(69.7045 67.8657) scale(0.890721 0.720419)">
<stop offset="0.4" stop-color="white"/>
<stop offset="0.53" stop-color="#EFE7E7"/>
<stop offset="0.7" stop-color="#D7C2C2"/>
<stop offset="0.74" stop-color="#D1BCBC"/>
<stop offset="0.79" stop-color="#C0ADAE"/>
<stop offset="0.84" stop-color="#A59396"/>
<stop offset="0.9" stop-color="#7F7075"/>
<stop offset="0.97" stop-color="#4E434B"/>
<stop offset="1" stop-color="#342B34"/>
</radialGradient>
<radialGradient id="paint30_radial_17_1943" cx="0" cy="0" r="1" gradientUnits="userSpaceOnUse" gradientTransform="translate(68.9633 68.5119) scale(0.339972 0.274967)">
<stop offset="0.4" stop-color="white"/>
<stop offset="0.53" stop-color="#EFE7E7"/>
<stop offset="0.7" stop-color="#D7C2C2"/>
<stop offset="0.74" stop-color="#D1BCBC"/>
<stop offset="0.79" stop-color="#C0ADAE"/>
<stop offset="0.84" stop-color="#A59396"/>
<stop offset="0.9" stop-color="#7F7075"/>
<stop offset="0.97" stop-color="#4E434B"/>
<stop offset="1" stop-color="#342B34"/>
</radialGradient>
<radialGradient id="paint31_radial_17_1943" cx="0" cy="0" r="1" gradientUnits="userSpaceOnUse" gradientTransform="translate(43.4009 78.5675) scale(3.15153 2.54897)">
<stop offset="0.4" stop-color="white"/>
<stop offset="0.53" stop-color="#EFE7E7"/>
<stop offset="0.7" stop-color="#D7C2C2"/>
<stop offset="0.74" stop-color="#D1BCBC"/>
<stop offset="0.79" stop-color="#C0ADAE"/>
<stop offset="0.84" stop-color="#A59396"/>
<stop offset="0.9" stop-color="#7F7075"/>
<stop offset="0.97" stop-color="#4E434B"/>
<stop offset="1" stop-color="#342B34"/>
</radialGradient>
<radialGradient id="paint32_radial_17_1943" cx="0" cy="0" r="1" gradientUnits="userSpaceOnUse" gradientTransform="translate(43.2173 78.6913) scale(2.61778 2.11726)">
<stop offset="0.4" stop-color="white"/>
<stop offset="0.53" stop-color="#EFE7E7"/>
<stop offset="0.7" stop-color="#D7C2C2"/>
<stop offset="0.74" stop-color="#D1BCBC"/>
<stop offset="0.79" stop-color="#C0ADAE"/>
<stop offset="0.84" stop-color="#A59396"/>
<stop offset="0.9" stop-color="#7F7075"/>
<stop offset="0.97" stop-color="#4E434B"/>
<stop offset="1" stop-color="#342B34"/>
</radialGradient>
<radialGradient id="paint33_radial_17_1943" cx="0" cy="0" r="1" gradientUnits="userSpaceOnUse" gradientTransform="translate(43.2173 78.6912) scale(2.62117 2.12001)">
<stop offset="0.4" stop-color="white"/>
<stop offset="0.53" stop-color="#EFE7E7"/>
<stop offset="0.7" stop-color="#D7C2C2"/>
<stop offset="0.74" stop-color="#D1BCBC"/>
<stop offset="0.79" stop-color="#C0ADAE"/>
<stop offset="0.84" stop-color="#A59396"/>
<stop offset="0.9" stop-color="#7F7075"/>
<stop offset="0.97" stop-color="#4E434B"/>
<stop offset="1" stop-color="#342B34"/>
</radialGradient>
<radialGradient id="paint34_radial_17_1943" cx="0" cy="0" r="1" gradientUnits="userSpaceOnUse" gradientTransform="translate(43.0133 78.7765) scale(2.3016 1.86155)">
<stop offset="0.4" stop-color="white"/>
<stop offset="0.53" stop-color="#EFE7E7"/>
<stop offset="0.7" stop-color="#D7C2C2"/>
<stop offset="0.74" stop-color="#D1BCBC"/>
<stop offset="0.79" stop-color="#C0ADAE"/>
<stop offset="0.84" stop-color="#A59396"/>
<stop offset="0.9" stop-color="#7F7075"/>
<stop offset="0.97" stop-color="#4E434B"/>
<stop offset="1" stop-color="#342B34"/>
</radialGradient>
<radialGradient id="paint35_radial_17_1943" cx="0" cy="0" r="1" gradientUnits="userSpaceOnUse" gradientTransform="translate(42.6665 78.804) scale(0.890724 0.72042)">
<stop offset="0.4" stop-color="white"/>
<stop offset="0.53" stop-color="#EFE7E7"/>
<stop offset="0.7" stop-color="#D7C2C2"/>
<stop offset="0.74" stop-color="#D1BCBC"/>
<stop offset="0.79" stop-color="#C0ADAE"/>
<stop offset="0.84" stop-color="#A59396"/>
<stop offset="0.9" stop-color="#7F7075"/>
<stop offset="0.97" stop-color="#4E434B"/>
<stop offset="1" stop-color="#342B34"/>
</radialGradient>
<radialGradient id="paint36_radial_17_1943" cx="0" cy="0" r="1" gradientUnits="userSpaceOnUse" gradientTransform="translate(41.9254 79.4474) scale(0.339968 0.274967)">
<stop offset="0.4" stop-color="white"/>
<stop offset="0.53" stop-color="#EFE7E7"/>
<stop offset="0.7" stop-color="#D7C2C2"/>
<stop offset="0.74" stop-color="#D1BCBC"/>
<stop offset="0.79" stop-color="#C0ADAE"/>
<stop offset="0.84" stop-color="#A59396"/>
<stop offset="0.9" stop-color="#7F7075"/>
<stop offset="0.97" stop-color="#4E434B"/>
<stop offset="1" stop-color="#342B34"/>
</radialGradient>
<radialGradient id="paint37_radial_17_1943" cx="0" cy="0" r="1" gradientUnits="userSpaceOnUse" gradientTransform="translate(14.7549 66.6283) scale(3.15153 2.54896)">
<stop offset="0.4" stop-color="white"/>
<stop offset="0.53" stop-color="#EFE7E7"/>
<stop offset="0.7" stop-color="#D7C2C2"/>
<stop offset="0.74" stop-color="#D1BCBC"/>
<stop offset="0.79" stop-color="#C0ADAE"/>
<stop offset="0.84" stop-color="#A59396"/>
<stop offset="0.9" stop-color="#7F7075"/>
<stop offset="0.97" stop-color="#4E434B"/>
<stop offset="1" stop-color="#342B34"/>
</radialGradient>
<radialGradient id="paint38_radial_17_1943" cx="0" cy="0" r="1" gradientUnits="userSpaceOnUse" gradientTransform="translate(14.5713 66.7521) scale(2.62117 2.12001)">
<stop offset="0.4" stop-color="white"/>
<stop offset="0.53" stop-color="#EFE7E7"/>
<stop offset="0.7" stop-color="#D7C2C2"/>
<stop offset="0.74" stop-color="#D1BCBC"/>
<stop offset="0.79" stop-color="#C0ADAE"/>
<stop offset="0.84" stop-color="#A59396"/>
<stop offset="0.9" stop-color="#7F7075"/>
<stop offset="0.97" stop-color="#4E434B"/>
<stop offset="1" stop-color="#342B34"/>
</radialGradient>
<radialGradient id="paint39_radial_17_1943" cx="0" cy="0" r="1" gradientUnits="userSpaceOnUse" gradientTransform="translate(14.5713 66.752) scale(2.62117 2.12001)">
<stop offset="0.4" stop-color="white"/>
<stop offset="0.53" stop-color="#EFE7E7"/>
<stop offset="0.7" stop-color="#D7C2C2"/>
<stop offset="0.74" stop-color="#D1BCBC"/>
<stop offset="0.79" stop-color="#C0ADAE"/>
<stop offset="0.84" stop-color="#A59396"/>
<stop offset="0.9" stop-color="#7F7075"/>
<stop offset="0.97" stop-color="#4E434B"/>
<stop offset="1" stop-color="#342B34"/>
</radialGradient>
<radialGradient id="paint40_radial_17_1943" cx="0" cy="0" r="1" gradientUnits="userSpaceOnUse" gradientTransform="translate(14.3639 66.8373) scale(2.3016 1.86154)">
<stop offset="0.4" stop-color="white"/>
<stop offset="0.53" stop-color="#EFE7E7"/>
<stop offset="0.7" stop-color="#D7C2C2"/>
<stop offset="0.74" stop-color="#D1BCBC"/>
<stop offset="0.79" stop-color="#C0ADAE"/>
<stop offset="0.84" stop-color="#A59396"/>
<stop offset="0.9" stop-color="#7F7075"/>
<stop offset="0.97" stop-color="#4E434B"/>
<stop offset="1" stop-color="#342B34"/>
</radialGradient>
<radialGradient id="paint41_radial_17_1943" cx="0" cy="0" r="1" gradientUnits="userSpaceOnUse" gradientTransform="translate(14.0238 66.8648) scale(0.890724 0.720421)">
<stop offset="0.4" stop-color="white"/>
<stop offset="0.53" stop-color="#EFE7E7"/>
<stop offset="0.7" stop-color="#D7C2C2"/>
<stop offset="0.74" stop-color="#D1BCBC"/>
<stop offset="0.79" stop-color="#C0ADAE"/>
<stop offset="0.84" stop-color="#A59396"/>
<stop offset="0.9" stop-color="#7F7075"/>
<stop offset="0.97" stop-color="#4E434B"/>
<stop offset="1" stop-color="#342B34"/>
</radialGradient>
<radialGradient id="paint42_radial_17_1943" cx="0" cy="0" r="1" gradientUnits="userSpaceOnUse" gradientTransform="translate(13.2795 67.5082) scale(0.339971 0.274974)">
<stop offset="0.4" stop-color="white"/>
<stop offset="0.53" stop-color="#EFE7E7"/>
<stop offset="0.7" stop-color="#D7C2C2"/>
<stop offset="0.74" stop-color="#D1BCBC"/>
<stop offset="0.79" stop-color="#C0ADAE"/>
<stop offset="0.84" stop-color="#A59396"/>
<stop offset="0.9" stop-color="#7F7075"/>
<stop offset="0.97" stop-color="#4E434B"/>
<stop offset="1" stop-color="#342B34"/>
</radialGradient>
<radialGradient id="paint43_radial_17_1943" cx="0" cy="0" r="1" gradientUnits="userSpaceOnUse" gradientTransform="translate(4.30077 39.9398) scale(3.15493 2.55171)">
<stop offset="0.4" stop-color="white"/>
<stop offset="0.53" stop-color="#EFE7E7"/>
<stop offset="0.7" stop-color="#D7C2C2"/>
<stop offset="0.74" stop-color="#D1BCBC"/>
<stop offset="0.79" stop-color="#C0ADAE"/>
<stop offset="0.84" stop-color="#A59396"/>
<stop offset="0.9" stop-color="#7F7075"/>
<stop offset="0.97" stop-color="#4E434B"/>
<stop offset="1" stop-color="#342B34"/>
</radialGradient>
<radialGradient id="paint44_radial_17_1943" cx="0" cy="0" r="1" gradientUnits="userSpaceOnUse" gradientTransform="translate(4.11719 40.0635) scale(2.62118 2.12001)">
<stop offset="0.4" stop-color="white"/>
<stop offset="0.53" stop-color="#EFE7E7"/>
<stop offset="0.7" stop-color="#D7C2C2"/>
<stop offset="0.74" stop-color="#D1BCBC"/>
<stop offset="0.79" stop-color="#C0ADAE"/>
<stop offset="0.84" stop-color="#A59396"/>
<stop offset="0.9" stop-color="#7F7075"/>
<stop offset="0.97" stop-color="#4E434B"/>
<stop offset="1" stop-color="#342B34"/>
</radialGradient>
<radialGradient id="paint45_radial_17_1943" cx="0" cy="0" r="1" gradientUnits="userSpaceOnUse" gradientTransform="translate(4.11717 40.0635) scale(2.62118 2.12001)">
<stop offset="0.4" stop-color="white"/>
<stop offset="0.53" stop-color="#EFE7E7"/>
<stop offset="0.7" stop-color="#D7C2C2"/>
<stop offset="0.74" stop-color="#D1BCBC"/>
<stop offset="0.79" stop-color="#C0ADAE"/>
<stop offset="0.84" stop-color="#A59396"/>
<stop offset="0.9" stop-color="#7F7075"/>
<stop offset="0.97" stop-color="#4E434B"/>
<stop offset="1" stop-color="#342B34"/>
</radialGradient>
<radialGradient id="paint46_radial_17_1943" cx="0" cy="0" r="1" gradientUnits="userSpaceOnUse" gradientTransform="translate(3.91321 40.1488) scale(2.3016 1.86154)">
<stop offset="0.4" stop-color="white"/>
<stop offset="0.53" stop-color="#EFE7E7"/>
<stop offset="0.7" stop-color="#D7C2C2"/>
<stop offset="0.74" stop-color="#D1BCBC"/>
<stop offset="0.79" stop-color="#C0ADAE"/>
<stop offset="0.84" stop-color="#A59396"/>
<stop offset="0.9" stop-color="#7F7075"/>
<stop offset="0.97" stop-color="#4E434B"/>
<stop offset="1" stop-color="#342B34"/>
</radialGradient>
<radialGradient id="paint47_radial_17_1943" cx="0" cy="0" r="1" gradientUnits="userSpaceOnUse" gradientTransform="translate(3.56636 40.1762) scale(0.890724 0.72042)">
<stop offset="0.4" stop-color="white"/>
<stop offset="0.53" stop-color="#EFE7E7"/>
<stop offset="0.7" stop-color="#D7C2C2"/>
<stop offset="0.74" stop-color="#D1BCBC"/>
<stop offset="0.79" stop-color="#C0ADAE"/>
<stop offset="0.84" stop-color="#A59396"/>
<stop offset="0.9" stop-color="#7F7075"/>
<stop offset="0.97" stop-color="#4E434B"/>
<stop offset="1" stop-color="#342B34"/>
</radialGradient>
<radialGradient id="paint48_radial_17_1943" cx="0" cy="0" r="1" gradientUnits="userSpaceOnUse" gradientTransform="translate(2.82535 40.8224) scale(0.336571 0.272221)">
<stop offset="0.4" stop-color="white"/>
<stop offset="0.53" stop-color="#EFE7E7"/>
<stop offset="0.7" stop-color="#D7C2C2"/>
<stop offset="0.74" stop-color="#D1BCBC"/>
<stop offset="0.79" stop-color="#C0ADAE"/>
<stop offset="0.84" stop-color="#A59396"/>
<stop offset="0.9" stop-color="#7F7075"/>
<stop offset="0.97" stop-color="#4E434B"/>
<stop offset="1" stop-color="#342B34"/>
</radialGradient>
<radialGradient id="paint49_radial_17_1943" cx="0" cy="0" r="1" gradientUnits="userSpaceOnUse" gradientTransform="translate(16.6655 12.1762) scale(3.15153 2.54897)">
<stop offset="0.4" stop-color="white"/>
<stop offset="0.53" stop-color="#EFE7E7"/>
<stop offset="0.7" stop-color="#D7C2C2"/>
<stop offset="0.74" stop-color="#D1BCBC"/>
<stop offset="0.79" stop-color="#C0ADAE"/>
<stop offset="0.84" stop-color="#A59396"/>
<stop offset="0.9" stop-color="#7F7075"/>
<stop offset="0.97" stop-color="#4E434B"/>
<stop offset="1" stop-color="#342B34"/>
</radialGradient>
<radialGradient id="paint50_radial_17_1943" cx="0" cy="0" r="1" gradientUnits="userSpaceOnUse" gradientTransform="translate(16.4785 12.3) scale(2.62118 2.12001)">
<stop offset="0.4" stop-color="white"/>
<stop offset="0.53" stop-color="#EFE7E7"/>
<stop offset="0.7" stop-color="#D7C2C2"/>
<stop offset="0.74" stop-color="#D1BCBC"/>
<stop offset="0.79" stop-color="#C0ADAE"/>
<stop offset="0.84" stop-color="#A59396"/>
<stop offset="0.9" stop-color="#7F7075"/>
<stop offset="0.97" stop-color="#4E434B"/>
<stop offset="1" stop-color="#342B34"/>
</radialGradient>
<radialGradient id="paint51_radial_17_1943" cx="0" cy="0" r="1" gradientUnits="userSpaceOnUse" gradientTransform="translate(16.4785 12.2971) scale(2.62118 2.12001)">
<stop offset="0.4" stop-color="white"/>
<stop offset="0.53" stop-color="#EFE7E7"/>
<stop offset="0.7" stop-color="#D7C2C2"/>
<stop offset="0.74" stop-color="#D1BCBC"/>
<stop offset="0.79" stop-color="#C0ADAE"/>
<stop offset="0.84" stop-color="#A59396"/>
<stop offset="0.9" stop-color="#7F7075"/>
<stop offset="0.97" stop-color="#4E434B"/>
<stop offset="1" stop-color="#342B34"/>
</radialGradient>
<radialGradient id="paint52_radial_17_1943" cx="0" cy="0" r="1" gradientUnits="userSpaceOnUse" gradientTransform="translate(16.2746 12.3824) scale(2.3016 1.86154)">
<stop offset="0.4" stop-color="white"/>
<stop offset="0.53" stop-color="#EFE7E7"/>
<stop offset="0.7" stop-color="#D7C2C2"/>
<stop offset="0.74" stop-color="#D1BCBC"/>
<stop offset="0.79" stop-color="#C0ADAE"/>
<stop offset="0.84" stop-color="#A59396"/>
<stop offset="0.9" stop-color="#7F7075"/>
<stop offset="0.97" stop-color="#4E434B"/>
<stop offset="1" stop-color="#342B34"/>
</radialGradient>
<radialGradient id="paint53_radial_17_1943" cx="0" cy="0" r="1" gradientUnits="userSpaceOnUse" gradientTransform="translate(15.9278 12.4099) scale(0.890724 0.720419)">
<stop offset="0.4" stop-color="white"/>
<stop offset="0.53" stop-color="#EFE7E7"/>
<stop offset="0.7" stop-color="#D7C2C2"/>
<stop offset="0.74" stop-color="#D1BCBC"/>
<stop offset="0.79" stop-color="#C0ADAE"/>
<stop offset="0.84" stop-color="#A59396"/>
<stop offset="0.9" stop-color="#7F7075"/>
<stop offset="0.97" stop-color="#4E434B"/>
<stop offset="1" stop-color="#342B34"/>
</radialGradient>
<radialGradient id="paint54_radial_17_1943" cx="0" cy="0" r="1" gradientUnits="userSpaceOnUse" gradientTransform="translate(15.1867 13.056) scale(0.339971 0.274971)">
<stop offset="0.4" stop-color="white"/>
<stop offset="0.53" stop-color="#EFE7E7"/>
<stop offset="0.7" stop-color="#D7C2C2"/>
<stop offset="0.74" stop-color="#D1BCBC"/>
<stop offset="0.79" stop-color="#C0ADAE"/>
<stop offset="0.84" stop-color="#A59396"/>
<stop offset="0.9" stop-color="#7F7075"/>
<stop offset="0.97" stop-color="#4E434B"/>
<stop offset="1" stop-color="#342B34"/>
</radialGradient>
<radialGradient id="paint55_radial_17_1943" cx="0" cy="0" r="1" gradientUnits="userSpaceOnUse" gradientTransform="translate(42.1701 42.5762) scale(40.7727 40.7124)">
<stop offset="0.25" stop-color="#021DA3"/>
<stop offset="0.45" stop-color="#021CA0"/>
<stop offset="0.57" stop-color="#031C97"/>
<stop offset="0.68" stop-color="#061C89"/>
<stop offset="0.77" stop-color="#091B74"/>
<stop offset="0.86" stop-color="#0D1A59"/>
<stop offset="0.93" stop-color="#121938"/>
<stop offset="1" stop-color="#181818"/>
</radialGradient>
<radialGradient id="paint56_radial_17_1943" cx="0" cy="0" r="1" gradientUnits="userSpaceOnUse" gradientTransform="translate(46.4144 34.8218) rotate(2.20674) scale(50.4754 50.401)">
<stop offset="0.25" stop-color="#021DA3"/>
<stop offset="0.48" stop-color="#021CA0"/>
<stop offset="0.6" stop-color="#031C98"/>
<stop offset="0.7" stop-color="#051C8B"/>
<stop offset="0.78" stop-color="#081B77"/>
<stop offset="0.86" stop-color="#0C1A5E"/>
<stop offset="0.93" stop-color="#11193F"/>
<stop offset="0.99" stop-color="#17181B"/>
<stop offset="1" stop-color="#181818"/>
</radialGradient>
<radialGradient id="paint57_radial_17_1943" cx="0" cy="0" r="1" gradientUnits="userSpaceOnUse" gradientTransform="translate(39.6238 44.9219) scale(45.8281 45.7603)">
<stop offset="0.02" stop-color="#EFFFFF"/>
<stop offset="0.09" stop-color="#CEDBDB"/>
<stop offset="0.27" stop-color="#858E8E"/>
<stop offset="0.42" stop-color="#4C5151"/>
<stop offset="0.55" stop-color="#222525"/>
<stop offset="0.66" stop-color="#090A0A"/>
<stop offset="0.72"/>
</radialGradient>
<linearGradient id="paint58_linear_17_1943" x1="36.8666" y1="28.3626" x2="71.2921" y2="105.328" gradientUnits="userSpaceOnUse">
<stop stop-color="white"/>
<stop offset="1"/>
</linearGradient>
<linearGradient id="paint59_linear_17_1943" x1="42.6868" y1="4.919" x2="42.6868" y2="49.7865" gradientUnits="userSpaceOnUse">
<stop stop-color="white"/>
<stop offset="0.17" stop-color="#C6C6C6"/>
<stop offset="0.4" stop-color="#808080"/>
<stop offset="0.6" stop-color="#494949"/>
<stop offset="0.78" stop-color="#212121"/>
<stop offset="0.92" stop-color="#090909"/>
<stop offset="1"/>
</linearGradient>
<clipPath id="clip0_17_1943">
<rect width="84" height="83" fill="white"/>
</clipPath>
</defs>
</svg>
