<svg width="129" height="113" viewBox="0 0 129 113" fill="none" xmlns="http://www.w3.org/2000/svg">
<g filter="url(#filter0_d_17_15)">
<path d="M78.757 30.6691H49.5896C38.9513 30.6691 30.3318 39.2822 30.3318 49.9126V74.7642C30.3318 78.9828 33.7578 82.4063 37.9796 82.4063C41.5062 82.4063 44.5804 79.9957 45.4097 76.5722L47.6211 69.064C48.2661 69.1309 48.9279 69.1644 49.598 69.1644H78.757C79.4272 69.1644 80.0806 69.1309 80.7339 69.064L82.9454 76.5722C83.7746 79.9957 86.8489 82.4063 90.3754 82.4063C94.5972 82.4063 98.0233 78.9828 98.0233 74.7642V49.9126C98.0233 39.2822 89.4037 30.6691 78.7654 30.6691H78.757Z" fill="url(#paint0_radial_17_15)"/>
</g>
<path d="M67.2978 39.6086H34.5955C22.9352 39.6086 13.478 49.0588 13.478 60.7103V87.9559C13.478 92.5847 17.2308 96.3346 21.863 96.3346C25.733 96.3346 29.1004 93.6896 30.0135 89.9397L32.4343 81.7032C33.1463 81.7786 33.8667 81.812 34.5955 81.812H67.2978C68.0266 81.812 68.747 81.7786 69.459 81.7032L71.8798 89.9397C72.7929 93.698 76.1603 96.3346 80.0303 96.3346C84.6626 96.3346 88.4153 92.5847 88.4153 87.9559V60.7103C88.4153 49.0588 78.9581 39.6086 67.2978 39.6086Z" fill="url(#paint1_radial_17_15)"/>
<path opacity="0.35" d="M67.2978 39.6086H34.5955C22.9352 39.6086 13.478 49.0588 13.478 60.7103V87.9559C13.478 92.5847 17.2308 96.3346 21.863 96.3346C25.733 96.3346 29.1004 93.6896 30.0135 89.9397L32.4343 81.7032C33.1463 81.7786 33.8667 81.812 34.5955 81.812H67.2978C68.0266 81.812 68.747 81.7786 69.459 81.7032L71.8798 89.9397C72.7929 93.698 76.1603 96.3346 80.0303 96.3346C84.6626 96.3346 88.4153 92.5847 88.4153 87.9559V60.7103C88.4153 49.0588 78.9581 39.6086 67.2978 39.6086Z" fill="url(#paint2_radial_17_15)"/>
<path opacity="0.32" d="M67.2978 39.6086H34.5955C22.9352 39.6086 13.478 49.0588 13.478 60.7103V87.9559C13.478 92.5847 17.2308 96.3346 21.863 96.3346C25.733 96.3346 29.1004 93.6896 30.0135 89.9397L32.4343 81.7032C33.1463 81.7786 33.8667 81.812 34.5955 81.812H67.2978C68.0266 81.812 68.747 81.7786 69.459 81.7032L71.8798 89.9397C72.7929 93.698 76.1603 96.3346 80.0303 96.3346C84.6626 96.3346 88.4153 92.5847 88.4153 87.9559V60.7103C88.4153 49.0588 78.9581 39.6086 67.2978 39.6086Z" fill="url(#paint3_radial_17_15)"/>
<path opacity="0.5" d="M67.2978 39.6086H34.5955C22.9352 39.6086 13.478 49.0588 13.478 60.7103V87.9559C13.478 92.5847 17.2308 96.3346 21.863 96.3346C25.733 96.3346 29.1004 93.6896 30.0135 89.9397L32.4343 81.7032C33.1463 81.7786 33.8667 81.812 34.5955 81.812H67.2978C68.0266 81.812 68.747 81.7786 69.459 81.7032L71.8798 89.9397C72.7929 93.698 76.1603 96.3346 80.0303 96.3346C84.6626 96.3346 88.4153 92.5847 88.4153 87.9559V60.7103C88.4153 49.0588 78.9581 39.6086 67.2978 39.6086ZM87.1588 87.9559C87.1588 91.8816 83.9589 95.0791 80.0303 95.0791C76.7299 95.0791 73.8819 92.8442 73.1028 89.6383V89.6132L73.0861 89.5881L70.6652 81.3517L70.3721 80.3472L69.3333 80.4561C68.6632 80.523 67.9763 80.5565 67.2978 80.5565H34.5955C33.917 80.5565 33.2301 80.523 32.56 80.4561L31.5213 80.3472L31.2281 81.3517L28.8072 89.5881V89.6132L28.7905 89.6383C28.0115 92.8442 25.1634 95.0791 21.863 95.0791C17.9344 95.0791 14.7345 91.8816 14.7345 87.9559V60.7103C14.7345 49.7703 23.6472 40.8642 34.5955 40.8642H67.2978C78.2461 40.8642 87.1588 49.7703 87.1588 60.7103V87.9559Z" fill="url(#paint4_linear_17_15)"/>
<path opacity="0.31" d="M46.7417 56.8014H39.3702V49.4354C39.3702 47.7446 37.9965 46.3719 36.3044 46.3719C34.6123 46.3719 33.2385 47.7446 33.2385 49.4354V56.8014H25.8671C24.175 56.8014 22.8013 58.1741 22.8013 59.8649C22.8013 61.5557 24.175 62.9285 25.8671 62.9285H33.2385V70.2944C33.2385 71.9852 34.6123 73.358 36.3044 73.358C37.9965 73.358 39.3702 71.9852 39.3702 70.2944V62.9285H46.7417C48.4337 62.9285 49.8075 61.5557 49.8075 59.8649C49.8075 58.1741 48.4337 56.8014 46.7417 56.8014Z" fill="white"/>
<g opacity="0.31">
<path d="M63.076 60.7773C66.1756 60.7773 68.6883 58.2664 68.6883 55.1691C68.6883 52.0718 66.1756 49.561 63.076 49.561C59.9764 49.561 57.4636 52.0718 57.4636 55.1691C57.4636 58.2664 59.9764 60.7773 63.076 60.7773Z" fill="white"/>
<path d="M74.3426 71.868C77.4422 71.868 79.9549 69.3572 79.9549 66.2599C79.9549 63.1626 77.4422 60.6517 74.3426 60.6517C71.243 60.6517 68.7302 63.1626 68.7302 66.2599C68.7302 69.3572 71.243 71.868 74.3426 71.868Z" fill="white"/>
</g>
<path opacity="0.71" d="M75.2891 43.2163L78.7822 53.9471L76.7299 42.8396L87.4687 39.3491L76.3613 41.3999L72.8683 30.6691L74.9205 41.7765L64.1733 45.267L75.2891 43.2163Z" fill="url(#paint5_radial_17_15)"/>
<defs>
<filter id="filter0_d_17_15" x="28.4718" y="25.0891" width="78.8514" height="62.8972" filterUnits="userSpaceOnUse" color-interpolation-filters="sRGB">
<feFlood flood-opacity="0" result="BackgroundImageFix"/>
<feColorMatrix in="SourceAlpha" type="matrix" values="0 0 0 0 0 0 0 0 0 0 0 0 0 0 0 0 0 0 127 0" result="hardAlpha"/>
<feOffset dx="3.72"/>
<feGaussianBlur stdDeviation="2.79"/>
<feColorMatrix type="matrix" values="0 0 0 0 0 0 0 0 0 0 0 0 0 0 0 0 0 0 0.25 0"/>
<feBlend mode="normal" in2="BackgroundImageFix" result="effect1_dropShadow_17_15"/>
<feBlend mode="normal" in="SourceGraphic" in2="effect1_dropShadow_17_15" result="shape"/>
</filter>
<radialGradient id="paint0_radial_17_15" cx="0" cy="0" r="1" gradientUnits="userSpaceOnUse" gradientTransform="translate(66.4434 32.4436) scale(47.8389 47.8032)">
<stop stop-color="#FF00FF"/>
<stop offset="1" stop-color="#6800FF"/>
</radialGradient>
<radialGradient id="paint1_radial_17_15" cx="0" cy="0" r="1" gradientUnits="userSpaceOnUse" gradientTransform="translate(51.2315 67.4485) scale(45.8118 45.7776)">
<stop stop-color="#6800FF"/>
<stop offset="0.33" stop-color="#6500FC"/>
<stop offset="0.52" stop-color="#5F04F4"/>
<stop offset="0.67" stop-color="#5309E6"/>
<stop offset="0.81" stop-color="#4311D2"/>
<stop offset="0.93" stop-color="#2E1CB9"/>
<stop offset="1" stop-color="#1F24A6"/>
</radialGradient>
<radialGradient id="paint2_radial_17_15" cx="0" cy="0" r="1" gradientUnits="userSpaceOnUse" gradientTransform="translate(50.6786 69.9924) rotate(-0.569574) scale(45.6023 31.8978)">
<stop stop-color="white" stop-opacity="0"/>
<stop offset="0.37" stop-color="white" stop-opacity="0"/>
<stop offset="0.51" stop-color="white" stop-opacity="0.03"/>
<stop offset="0.6" stop-color="white" stop-opacity="0.08"/>
<stop offset="0.68" stop-color="white" stop-opacity="0.15"/>
<stop offset="0.75" stop-color="white" stop-opacity="0.23"/>
<stop offset="0.8" stop-color="white" stop-opacity="0.34"/>
<stop offset="0.86" stop-color="white" stop-opacity="0.47"/>
<stop offset="0.91" stop-color="white" stop-opacity="0.61"/>
<stop offset="0.95" stop-color="white" stop-opacity="0.78"/>
<stop offset="0.99" stop-color="white" stop-opacity="0.96"/>
<stop offset="1" stop-color="white"/>
</radialGradient>
<radialGradient id="paint3_radial_17_15" cx="0" cy="0" r="1" gradientUnits="userSpaceOnUse" gradientTransform="translate(53.4597 41.5589) scale(52.5968 52.5576)">
<stop stop-color="white"/>
<stop offset="0.07" stop-color="white" stop-opacity="0.89"/>
<stop offset="0.27" stop-color="white" stop-opacity="0.63"/>
<stop offset="0.46" stop-color="white" stop-opacity="0.4"/>
<stop offset="0.63" stop-color="white" stop-opacity="0.23"/>
<stop offset="0.78" stop-color="white" stop-opacity="0.1"/>
<stop offset="0.91" stop-color="white" stop-opacity="0.03"/>
<stop offset="1" stop-color="white" stop-opacity="0"/>
</radialGradient>
<linearGradient id="paint4_linear_17_15" x1="16.3009" y1="40.4875" x2="92.5696" y2="108.846" gradientUnits="userSpaceOnUse">
<stop stop-color="white" stop-opacity="0"/>
<stop offset="0.05" stop-color="white" stop-opacity="0.02"/>
<stop offset="0.12" stop-color="white" stop-opacity="0.08"/>
<stop offset="0.18" stop-color="white" stop-opacity="0.17"/>
<stop offset="0.26" stop-color="white" stop-opacity="0.3"/>
<stop offset="0.33" stop-color="white" stop-opacity="0.47"/>
<stop offset="0.41" stop-color="white" stop-opacity="0.67"/>
<stop offset="0.48" stop-color="white" stop-opacity="0.91"/>
<stop offset="0.51" stop-color="white" stop-opacity="0.96"/>
<stop offset="0.53" stop-color="white" stop-opacity="0.78"/>
<stop offset="0.56" stop-color="white" stop-opacity="0.61"/>
<stop offset="0.58" stop-color="white" stop-opacity="0.47"/>
<stop offset="0.61" stop-color="white" stop-opacity="0.34"/>
<stop offset="0.64" stop-color="white" stop-opacity="0.23"/>
<stop offset="0.67" stop-color="white" stop-opacity="0.15"/>
<stop offset="0.71" stop-color="white" stop-opacity="0.08"/>
<stop offset="0.75" stop-color="white" stop-opacity="0.03"/>
<stop offset="0.82" stop-color="white" stop-opacity="0"/>
<stop offset="1" stop-color="white" stop-opacity="0"/>
</linearGradient>
<radialGradient id="paint5_radial_17_15" cx="0" cy="0" r="1" gradientUnits="userSpaceOnUse" gradientTransform="translate(75.6948 42.5245) rotate(75.5397) scale(12.012 12.0199)">
<stop stop-color="white"/>
<stop offset="0.09" stop-color="white" stop-opacity="0.84"/>
<stop offset="0.23" stop-color="white" stop-opacity="0.62"/>
<stop offset="0.36" stop-color="white" stop-opacity="0.43"/>
<stop offset="0.5" stop-color="white" stop-opacity="0.28"/>
<stop offset="0.63" stop-color="white" stop-opacity="0.15"/>
<stop offset="0.76" stop-color="white" stop-opacity="0.07"/>
<stop offset="0.89" stop-color="white" stop-opacity="0.02"/>
<stop offset="1" stop-color="white" stop-opacity="0"/>
</radialGradient>
</defs>
</svg>
