<svg width="95" height="72" viewBox="0 0 95 72" fill="none" xmlns="http://www.w3.org/2000/svg">
<g filter="url(#filter0_d_17_16)">
<path d="M65.757 5.66907H36.5896C25.9513 5.66907 17.3318 14.2822 17.3318 24.9126V49.7642C17.3318 53.9828 20.7578 57.4063 24.9796 57.4063C28.5062 57.4063 31.5804 54.9957 32.4097 51.5722L34.6211 44.064C35.2661 44.1309 35.9279 44.1644 36.598 44.1644H65.757C66.4272 44.1644 67.0806 44.1309 67.7339 44.064L69.9454 51.5722C70.7746 54.9957 73.8489 57.4063 77.3754 57.4063C81.5972 57.4063 85.0233 53.9828 85.0233 49.7642V24.9126C85.0233 14.2822 76.4037 5.66907 65.7654 5.66907H65.757Z" fill="url(#paint0_radial_17_16)"/>
</g>
<path d="M54.2978 14.6086H21.5955C9.93523 14.6086 0.478027 24.0588 0.478027 35.7103V62.9559C0.478027 67.5847 4.23075 71.3346 8.86303 71.3346C12.733 71.3346 16.1004 68.6896 17.0135 64.9397L19.4343 56.7032C20.1463 56.7786 20.8667 56.812 21.5955 56.812H54.2978C55.0266 56.812 55.747 56.7786 56.459 56.7032L58.8798 64.9397C59.7929 68.698 63.1603 71.3346 67.0303 71.3346C71.6626 71.3346 75.4153 67.5847 75.4153 62.9559V35.7103C75.4153 24.0588 65.9581 14.6086 54.2978 14.6086Z" fill="url(#paint1_radial_17_16)"/>
<path opacity="0.35" d="M54.2978 14.6086H21.5955C9.93523 14.6086 0.478027 24.0588 0.478027 35.7103V62.9559C0.478027 67.5847 4.23075 71.3346 8.86303 71.3346C12.733 71.3346 16.1004 68.6896 17.0135 64.9397L19.4343 56.7032C20.1463 56.7786 20.8667 56.812 21.5955 56.812H54.2978C55.0266 56.812 55.747 56.7786 56.459 56.7032L58.8798 64.9397C59.7929 68.698 63.1603 71.3346 67.0303 71.3346C71.6626 71.3346 75.4153 67.5847 75.4153 62.9559V35.7103C75.4153 24.0588 65.9581 14.6086 54.2978 14.6086Z" fill="url(#paint2_radial_17_16)"/>
<path opacity="0.32" d="M54.2978 14.6086H21.5955C9.93523 14.6086 0.478027 24.0588 0.478027 35.7103V62.9559C0.478027 67.5847 4.23075 71.3346 8.86303 71.3346C12.733 71.3346 16.1004 68.6896 17.0135 64.9397L19.4343 56.7032C20.1463 56.7786 20.8667 56.812 21.5955 56.812H54.2978C55.0266 56.812 55.747 56.7786 56.459 56.7032L58.8798 64.9397C59.7929 68.698 63.1603 71.3346 67.0303 71.3346C71.6626 71.3346 75.4153 67.5847 75.4153 62.9559V35.7103C75.4153 24.0588 65.9581 14.6086 54.2978 14.6086Z" fill="url(#paint3_radial_17_16)"/>
<path opacity="0.5" d="M54.2978 14.6086H21.5955C9.93523 14.6086 0.478027 24.0588 0.478027 35.7103V62.9559C0.478027 67.5847 4.23075 71.3346 8.86303 71.3346C12.733 71.3346 16.1004 68.6896 17.0135 64.9397L19.4343 56.7032C20.1463 56.7786 20.8667 56.812 21.5955 56.812H54.2978C55.0266 56.812 55.747 56.7786 56.459 56.7032L58.8798 64.9397C59.7929 68.698 63.1603 71.3346 67.0303 71.3346C71.6626 71.3346 75.4153 67.5847 75.4153 62.9559V35.7103C75.4153 24.0588 65.9581 14.6086 54.2978 14.6086ZM74.1588 62.9559C74.1588 66.8816 70.9589 70.0791 67.0303 70.0791C63.7299 70.0791 60.8819 67.8442 60.1028 64.6383V64.6132L60.0861 64.5881L57.6652 56.3517L57.3721 55.3472L56.3333 55.4561C55.6632 55.523 54.9763 55.5565 54.2978 55.5565H21.5955C20.917 55.5565 20.2301 55.523 19.56 55.4561L18.5213 55.3472L18.2281 56.3517L15.8072 64.5881V64.6132L15.7905 64.6383C15.0115 67.8442 12.1634 70.0791 8.86303 70.0791C4.93439 70.0791 1.73452 66.8816 1.73452 62.9559V35.7103C1.73452 24.7703 10.6472 15.8642 21.5955 15.8642H54.2978C65.2461 15.8642 74.1588 24.7703 74.1588 35.7103V62.9559Z" fill="url(#paint4_linear_17_16)"/>
<path opacity="0.31" d="M33.7417 31.8014H26.3702V24.4354C26.3702 22.7446 24.9965 21.3719 23.3044 21.3719C21.6123 21.3719 20.2385 22.7446 20.2385 24.4354V31.8014H12.8671C11.175 31.8014 9.80127 33.1741 9.80127 34.8649C9.80127 36.5557 11.175 37.9285 12.8671 37.9285H20.2385V45.2944C20.2385 46.9852 21.6123 48.358 23.3044 48.358C24.9965 48.358 26.3702 46.9852 26.3702 45.2944V37.9285H33.7417C35.4337 37.9285 36.8075 36.5557 36.8075 34.8649C36.8075 33.1741 35.4337 31.8014 33.7417 31.8014Z" fill="white"/>
<g opacity="0.31">
<path d="M50.076 35.7773C53.1756 35.7773 55.6883 33.2664 55.6883 30.1691C55.6883 27.0718 53.1756 24.561 50.076 24.561C46.9764 24.561 44.4636 27.0718 44.4636 30.1691C44.4636 33.2664 46.9764 35.7773 50.076 35.7773Z" fill="white"/>
<path d="M61.3426 46.868C64.4422 46.868 66.9549 44.3572 66.9549 41.2599C66.9549 38.1626 64.4422 35.6517 61.3426 35.6517C58.243 35.6517 55.7302 38.1626 55.7302 41.2599C55.7302 44.3572 58.243 46.868 61.3426 46.868Z" fill="white"/>
</g>
<defs>
<filter id="filter0_d_17_16" x="15.4718" y="0.0890675" width="78.8514" height="62.8972" filterUnits="userSpaceOnUse" color-interpolation-filters="sRGB">
<feFlood flood-opacity="0" result="BackgroundImageFix"/>
<feColorMatrix in="SourceAlpha" type="matrix" values="0 0 0 0 0 0 0 0 0 0 0 0 0 0 0 0 0 0 127 0" result="hardAlpha"/>
<feOffset dx="3.72"/>
<feGaussianBlur stdDeviation="2.79"/>
<feColorMatrix type="matrix" values="0 0 0 0 0 0 0 0 0 0 0 0 0 0 0 0 0 0 0.25 0"/>
<feBlend mode="normal" in2="BackgroundImageFix" result="effect1_dropShadow_17_16"/>
<feBlend mode="normal" in="SourceGraphic" in2="effect1_dropShadow_17_16" result="shape"/>
</filter>
<radialGradient id="paint0_radial_17_16" cx="0" cy="0" r="1" gradientUnits="userSpaceOnUse" gradientTransform="translate(53.4434 7.44359) scale(47.8389 47.8032)">
<stop stop-color="#FF00FF"/>
<stop offset="1" stop-color="#6800FF"/>
</radialGradient>
<radialGradient id="paint1_radial_17_16" cx="0" cy="0" r="1" gradientUnits="userSpaceOnUse" gradientTransform="translate(38.2315 42.4485) scale(45.8118 45.7776)">
<stop stop-color="#6800FF"/>
<stop offset="0.33" stop-color="#6500FC"/>
<stop offset="0.52" stop-color="#5F04F4"/>
<stop offset="0.67" stop-color="#5309E6"/>
<stop offset="0.81" stop-color="#4311D2"/>
<stop offset="0.93" stop-color="#2E1CB9"/>
<stop offset="1" stop-color="#1F24A6"/>
</radialGradient>
<radialGradient id="paint2_radial_17_16" cx="0" cy="0" r="1" gradientUnits="userSpaceOnUse" gradientTransform="translate(37.6786 44.9924) rotate(-0.569574) scale(45.6023 31.8978)">
<stop stop-color="white" stop-opacity="0"/>
<stop offset="0.37" stop-color="white" stop-opacity="0"/>
<stop offset="0.51" stop-color="white" stop-opacity="0.03"/>
<stop offset="0.6" stop-color="white" stop-opacity="0.08"/>
<stop offset="0.68" stop-color="white" stop-opacity="0.15"/>
<stop offset="0.75" stop-color="white" stop-opacity="0.23"/>
<stop offset="0.8" stop-color="white" stop-opacity="0.34"/>
<stop offset="0.86" stop-color="white" stop-opacity="0.47"/>
<stop offset="0.91" stop-color="white" stop-opacity="0.61"/>
<stop offset="0.95" stop-color="white" stop-opacity="0.78"/>
<stop offset="0.99" stop-color="white" stop-opacity="0.96"/>
<stop offset="1" stop-color="white"/>
</radialGradient>
<radialGradient id="paint3_radial_17_16" cx="0" cy="0" r="1" gradientUnits="userSpaceOnUse" gradientTransform="translate(40.4597 16.5589) scale(52.5968 52.5576)">
<stop stop-color="white"/>
<stop offset="0.07" stop-color="white" stop-opacity="0.89"/>
<stop offset="0.27" stop-color="white" stop-opacity="0.63"/>
<stop offset="0.46" stop-color="white" stop-opacity="0.4"/>
<stop offset="0.63" stop-color="white" stop-opacity="0.23"/>
<stop offset="0.78" stop-color="white" stop-opacity="0.1"/>
<stop offset="0.91" stop-color="white" stop-opacity="0.03"/>
<stop offset="1" stop-color="white" stop-opacity="0"/>
</radialGradient>
<linearGradient id="paint4_linear_17_16" x1="3.30095" y1="15.4875" x2="79.5696" y2="83.8464" gradientUnits="userSpaceOnUse">
<stop stop-color="white" stop-opacity="0"/>
<stop offset="0.05" stop-color="white" stop-opacity="0.02"/>
<stop offset="0.12" stop-color="white" stop-opacity="0.08"/>
<stop offset="0.18" stop-color="white" stop-opacity="0.17"/>
<stop offset="0.26" stop-color="white" stop-opacity="0.3"/>
<stop offset="0.33" stop-color="white" stop-opacity="0.47"/>
<stop offset="0.41" stop-color="white" stop-opacity="0.67"/>
<stop offset="0.48" stop-color="white" stop-opacity="0.91"/>
<stop offset="0.51" stop-color="white" stop-opacity="0.96"/>
<stop offset="0.53" stop-color="white" stop-opacity="0.78"/>
<stop offset="0.56" stop-color="white" stop-opacity="0.61"/>
<stop offset="0.58" stop-color="white" stop-opacity="0.47"/>
<stop offset="0.61" stop-color="white" stop-opacity="0.34"/>
<stop offset="0.64" stop-color="white" stop-opacity="0.23"/>
<stop offset="0.67" stop-color="white" stop-opacity="0.15"/>
<stop offset="0.71" stop-color="white" stop-opacity="0.08"/>
<stop offset="0.75" stop-color="white" stop-opacity="0.03"/>
<stop offset="0.82" stop-color="white" stop-opacity="0"/>
<stop offset="1" stop-color="white" stop-opacity="0"/>
</linearGradient>
</defs>
</svg>
