<svg width="108" height="126" viewBox="0 0 108 126" fill="none" xmlns="http://www.w3.org/2000/svg">
<g filter="url(#filter0_d_17_5)">
<path d="M71.4047 51.9915H68.9872V45.6003C68.9872 37.344 62.2829 30.6544 54.0084 30.6544C45.7339 30.6544 39.0296 37.344 39.0296 45.6003V51.9915H36.6121C33.0149 51.9915 30.1072 54.9011 30.1072 58.4822V89.2942C30.1072 92.8835 33.0232 95.7848 36.6121 95.7848H71.3964C74.9936 95.7848 77.9013 92.8752 77.9013 89.2942V58.4822C77.9013 54.8928 74.9853 51.9915 71.3964 51.9915H71.4047ZM63.1053 47.3163V51.9915H44.9115V45.6003C44.9115 40.5935 48.9906 36.5234 54.0084 36.5234C59.0263 36.5234 63.1053 40.5935 63.1053 45.6003V47.308V47.3163Z" fill="url(#paint0_radial_17_5)"/>
</g>
<path d="M64.0524 59.104H36.4542V52.4475C36.4542 47.2334 40.7078 42.9892 45.9333 42.9892C51.1588 42.9892 55.4124 47.2334 55.4124 52.4475H61.5435C61.5435 43.8513 54.5567 36.8799 45.9416 36.8799C37.3265 36.8799 30.3398 43.8513 30.3398 52.4475V59.104H27.8225C24.0758 59.104 21.0435 62.1296 21.0435 65.8682V97.965C21.0435 101.704 24.0758 104.729 27.8225 104.729H64.0607C67.8075 104.729 70.8398 101.704 70.8398 97.965V65.8682C70.8398 62.1296 67.8075 59.104 64.0607 59.104H64.0524Z" fill="url(#paint1_radial_17_5)"/>
<path opacity="0.35" d="M64.0524 59.104H36.4542V52.4475C36.4542 47.2334 40.7078 42.9892 45.9333 42.9892C51.1588 42.9892 55.4124 47.2334 55.4124 52.4475H61.5435C61.5435 43.8513 54.5567 36.8799 45.9416 36.8799C37.3265 36.8799 30.3398 43.8513 30.3398 52.4475V59.104H27.8225C24.0758 59.104 21.0435 62.1296 21.0435 65.8682V97.965C21.0435 101.704 24.0758 104.729 27.8225 104.729H64.0607C67.8075 104.729 70.8398 101.704 70.8398 97.965V65.8682C70.8398 62.1296 67.8075 59.104 64.0607 59.104H64.0524Z" fill="url(#paint2_radial_17_5)"/>
<path opacity="0.32" d="M64.0524 59.104H36.4542V52.4475C36.4542 47.2334 40.7078 42.9892 45.9333 42.9892C51.1588 42.9892 55.4124 47.2334 55.4124 52.4475H61.5435C61.5435 43.8513 54.5567 36.8799 45.9416 36.8799C37.3265 36.8799 30.3398 43.8513 30.3398 52.4475V59.104H27.8225C24.0758 59.104 21.0435 62.1296 21.0435 65.8682V97.965C21.0435 101.704 24.0758 104.729 27.8225 104.729H64.0607C67.8075 104.729 70.8398 101.704 70.8398 97.965V65.8682C70.8398 62.1296 67.8075 59.104 64.0607 59.104H64.0524Z" fill="url(#paint3_radial_17_5)"/>
<path opacity="0.31" d="M52.5295 78.0868C52.5295 74.4478 49.5803 71.505 45.9332 71.505C42.2861 71.505 39.3369 74.4478 39.3369 78.0868C39.3369 80.7146 40.8821 82.9776 43.1169 84.0304L39.3369 93.1737H52.5295L48.7495 84.0304C50.9843 82.9776 52.5295 80.7146 52.5295 78.0868Z" fill="white"/>
<path opacity="0.5" d="M64.0524 59.104H36.4542V52.4475C36.4542 47.2334 40.7078 42.9892 45.9333 42.9892C51.1588 42.9892 55.4124 47.2334 55.4124 52.4475H61.5435C61.5435 43.8513 54.5567 36.8799 45.9416 36.8799C37.3265 36.8799 30.3398 43.8513 30.3398 52.4475V59.104H27.8225C24.0758 59.104 21.0435 62.1296 21.0435 65.8682V97.965C21.0435 101.704 24.0758 104.729 27.8225 104.729H64.0607C67.8075 104.729 70.8398 101.704 70.8398 97.965V65.8682C70.8398 62.1296 67.8075 59.104 64.0607 59.104H64.0524ZM69.5188 97.965C69.5188 100.974 67.0681 103.419 64.0524 103.419H27.8142C24.7985 103.419 22.3478 100.974 22.3478 97.965V65.8682C22.3478 62.8591 24.7985 60.4137 27.8142 60.4137H31.6441V52.4475C31.6441 44.5808 38.0576 38.1896 45.9333 38.1896C53.3687 38.1896 59.4998 43.8845 60.1644 51.1378H56.6419C55.9939 45.8159 51.433 41.6795 45.9333 41.6795C39.985 41.6795 35.1416 46.5122 35.1416 52.4475V60.4137H64.0524C67.0681 60.4137 69.5188 62.8591 69.5188 65.8682V97.965Z" fill="url(#paint4_linear_17_5)"/>
<path opacity="0.71" d="M47.171 38.3222L50.8181 49.5213L48.6747 37.9326L59.8984 34.2935L48.2843 36.4322L44.6372 25.2332L46.7806 36.8218L35.5569 40.4609L47.171 38.3222Z" fill="url(#paint5_radial_17_5)"/>
<defs>
<filter id="filter0_d_17_5" x="27.9972" y="24.3144" width="60.4742" height="77.8104" filterUnits="userSpaceOnUse" color-interpolation-filters="sRGB">
<feFlood flood-opacity="0" result="BackgroundImageFix"/>
<feColorMatrix in="SourceAlpha" type="matrix" values="0 0 0 0 0 0 0 0 0 0 0 0 0 0 0 0 0 0 127 0" result="hardAlpha"/>
<feOffset dx="4.23"/>
<feGaussianBlur stdDeviation="3.17"/>
<feColorMatrix type="matrix" values="0 0 0 0 0 0 0 0 0 0 0 0 0 0 0 0 0 0 0.25 0"/>
<feBlend mode="normal" in2="BackgroundImageFix" result="effect1_dropShadow_17_5"/>
<feBlend mode="normal" in="SourceGraphic" in2="effect1_dropShadow_17_5" result="shape"/>
</filter>
<radialGradient id="paint0_radial_17_5" cx="0" cy="0" r="1" gradientUnits="userSpaceOnUse" gradientTransform="translate(64.2186 42.4089) scale(67.0514 66.9044)">
<stop stop-color="#00C4FF"/>
<stop offset="1" stop-color="#1942B7"/>
</radialGradient>
<radialGradient id="paint1_radial_17_5" cx="0" cy="0" r="1" gradientUnits="userSpaceOnUse" gradientTransform="translate(45.4182 73.9007) scale(36.4625 36.3825)">
<stop stop-color="#6800FF"/>
<stop offset="0.33" stop-color="#6500FC"/>
<stop offset="0.52" stop-color="#5F04F4"/>
<stop offset="0.67" stop-color="#5309E6"/>
<stop offset="0.81" stop-color="#4311D2"/>
<stop offset="0.93" stop-color="#2E1CB9"/>
<stop offset="1" stop-color="#1F24A6"/>
</radialGradient>
<radialGradient id="paint2_radial_17_5" cx="0" cy="0" r="1" gradientUnits="userSpaceOnUse" gradientTransform="translate(45.4182 73.9007) scale(35.424 35.3463)">
<stop stop-color="white" stop-opacity="0"/>
<stop offset="0.37" stop-color="white" stop-opacity="0"/>
<stop offset="0.51" stop-color="white" stop-opacity="0.03"/>
<stop offset="0.6" stop-color="white" stop-opacity="0.08"/>
<stop offset="0.68" stop-color="white" stop-opacity="0.15"/>
<stop offset="0.75" stop-color="white" stop-opacity="0.23"/>
<stop offset="0.8" stop-color="white" stop-opacity="0.34"/>
<stop offset="0.86" stop-color="white" stop-opacity="0.47"/>
<stop offset="0.91" stop-color="white" stop-opacity="0.61"/>
<stop offset="0.95" stop-color="white" stop-opacity="0.78"/>
<stop offset="0.99" stop-color="white" stop-opacity="0.96"/>
<stop offset="1" stop-color="white"/>
</radialGradient>
<radialGradient id="paint3_radial_17_5" cx="0" cy="0" r="1" gradientUnits="userSpaceOnUse" gradientTransform="translate(56.0438 43.1882) scale(67.3089 67.1613)">
<stop stop-color="white"/>
<stop offset="0.07" stop-color="white" stop-opacity="0.89"/>
<stop offset="0.27" stop-color="white" stop-opacity="0.63"/>
<stop offset="0.46" stop-color="white" stop-opacity="0.4"/>
<stop offset="0.63" stop-color="white" stop-opacity="0.23"/>
<stop offset="0.78" stop-color="white" stop-opacity="0.1"/>
<stop offset="0.91" stop-color="white" stop-opacity="0.03"/>
<stop offset="1" stop-color="white" stop-opacity="0"/>
</radialGradient>
<linearGradient id="paint4_linear_17_5" x1="21.4838" y1="47.2915" x2="69.4747" y2="111.677" gradientUnits="userSpaceOnUse">
<stop stop-color="white" stop-opacity="0"/>
<stop offset="0.05" stop-color="white" stop-opacity="0.02"/>
<stop offset="0.12" stop-color="white" stop-opacity="0.08"/>
<stop offset="0.18" stop-color="white" stop-opacity="0.17"/>
<stop offset="0.26" stop-color="white" stop-opacity="0.3"/>
<stop offset="0.33" stop-color="white" stop-opacity="0.47"/>
<stop offset="0.41" stop-color="white" stop-opacity="0.67"/>
<stop offset="0.48" stop-color="white" stop-opacity="0.91"/>
<stop offset="0.51" stop-color="white" stop-opacity="0.96"/>
<stop offset="0.53" stop-color="white" stop-opacity="0.78"/>
<stop offset="0.56" stop-color="white" stop-opacity="0.61"/>
<stop offset="0.58" stop-color="white" stop-opacity="0.47"/>
<stop offset="0.61" stop-color="white" stop-opacity="0.34"/>
<stop offset="0.64" stop-color="white" stop-opacity="0.23"/>
<stop offset="0.67" stop-color="white" stop-opacity="0.15"/>
<stop offset="0.71" stop-color="white" stop-opacity="0.08"/>
<stop offset="0.75" stop-color="white" stop-opacity="0.03"/>
<stop offset="0.82" stop-color="white" stop-opacity="0"/>
<stop offset="1" stop-color="white" stop-opacity="0"/>
</linearGradient>
<radialGradient id="paint5_radial_17_5" cx="0" cy="0" r="1" gradientUnits="userSpaceOnUse" gradientTransform="translate(47.5988 37.599) rotate(75.5196) scale(12.5354 12.5595)">
<stop stop-color="white"/>
<stop offset="0.09" stop-color="white" stop-opacity="0.84"/>
<stop offset="0.23" stop-color="white" stop-opacity="0.62"/>
<stop offset="0.36" stop-color="white" stop-opacity="0.43"/>
<stop offset="0.5" stop-color="white" stop-opacity="0.28"/>
<stop offset="0.63" stop-color="white" stop-opacity="0.15"/>
<stop offset="0.76" stop-color="white" stop-opacity="0.07"/>
<stop offset="0.89" stop-color="white" stop-opacity="0.02"/>
<stop offset="1" stop-color="white" stop-opacity="0"/>
</radialGradient>
</defs>
</svg>
