<svg width="73" height="58" viewBox="0 0 73 58" fill="none" xmlns="http://www.w3.org/2000/svg">
<g clip-path="url(#clip0_17_324)" filter="url(#filter0_d_17_324)">
<path d="M20.4313 44.5257C19.2491 47.0806 21.115 50 23.9302 50C25.717 50 27.2697 48.7722 27.6817 47.0336L29.6348 38.7905C30.0816 36.9048 28.6513 35.0961 26.7134 35.0961C25.5435 35.0961 24.4801 35.7757 23.9888 36.8375L20.4313 44.5257Z" fill="white"/>
<path d="M36.5027 35.0961C34.8765 35.0961 33.5096 36.3171 33.3269 37.933L32.4726 45.4885C32.2006 47.8936 34.0822 50 36.5027 50C38.9232 50 40.8048 47.8936 40.5328 45.4885L39.6785 37.933C39.4958 36.3171 38.1289 35.0961 36.5027 35.0961Z" fill="#FF1422"/>
<path d="M46.2886 35.0961C44.3526 35.0961 42.9237 36.903 43.3701 38.7869L45.3245 47.0354C45.7362 48.773 47.2879 50 49.0737 50C51.8872 50 53.752 47.0824 52.5704 44.529L49.0107 36.8358C48.5198 35.7751 47.4575 35.0961 46.2886 35.0961Z" fill="#2A11C7"/>
<path d="M68.0402 15.8672C68.0368 15.8689 68.0327 15.8686 68.0295 15.8666C66.8429 15.0992 65.0118 15.7951 63.9434 17.4211C63.6265 17.9031 63.4146 18.4112 63.3022 18.9072C63.1893 19.4055 62.8622 19.86 62.369 19.9934C52.0023 22.8141 44.2799 18.5085 38.7584 6.82822C38.6928 6.6874 38.7059 6.52366 38.7823 6.38841C39.1606 5.71833 39.3903 4.87897 39.3903 3.96335C39.3903 1.77191 38.0987 0 36.4965 0C34.8944 0 33.6027 1.77743 33.6027 3.96335C33.6027 4.87426 33.8281 5.71336 34.2098 6.38349C34.2866 6.51834 34.3002 6.682 34.2347 6.8227C28.7132 18.503 20.9852 22.8086 10.624 19.9879C10.13 19.8543 9.80112 19.4009 9.68786 18.9019C9.57481 18.4037 9.3639 17.8954 9.04961 17.4155C7.97968 15.7872 6.15025 15.0916 4.95836 15.8644C3.772 16.6372 3.67222 18.5858 4.74215 20.2142C5.80464 21.8284 7.57247 23.1287 8.2149 24.9514L13.9145 41.1214C14.3312 42.3037 15.4484 43.0945 16.702 43.0945H16.9998C17.9697 43.0945 18.8512 42.5313 19.2588 41.6513L20.104 39.8266C20.4738 39.0282 19.8907 38.1155 19.0107 38.1155C18.4997 38.1155 18.0443 37.7931 17.8745 37.3112L16.8142 34.3029C15.4104 30.3197 18.791 26.1856 22.8276 24.9435C24.4751 24.4366 26.0472 23.716 27.5429 22.7823C32.649 19.5947 40.3545 19.5953 45.4605 22.783C46.9563 23.7168 48.5286 24.4375 50.1766 24.9443C54.2134 26.1859 57.5938 30.3195 56.19 34.3027L55.1297 37.3112C54.9598 37.7931 54.5044 38.1155 53.9934 38.1155C53.1134 38.1155 52.5303 39.0282 52.9002 39.8266L53.7453 41.6513C54.1529 42.5313 55.0345 43.0945 56.0043 43.0945H56.3021C57.5557 43.0945 58.6729 42.3037 59.0896 41.1214L64.7892 24.9514C65.4317 23.1287 67.1995 21.8284 68.262 20.2142C69.3304 18.5882 69.2379 16.6429 68.051 15.8678C68.0478 15.8657 68.0437 15.8655 68.0402 15.8672Z" fill="white"/>
<path d="M47.429 27.8483H25.5764C24.2015 27.8483 23.0869 28.9629 23.0869 30.3378C23.0869 31.7127 24.2015 32.8273 25.5764 32.8273H47.429C48.8039 32.8273 49.9185 31.7127 49.9185 30.3378C49.9185 28.9629 48.8039 27.8483 47.429 27.8483Z" fill="white"/>
</g>
<defs>
<filter id="filter0_d_17_324" x="0" y="0" width="73" height="58" filterUnits="userSpaceOnUse" color-interpolation-filters="sRGB">
<feFlood flood-opacity="0" result="BackgroundImageFix"/>
<feColorMatrix in="SourceAlpha" type="matrix" values="0 0 0 0 0 0 0 0 0 0 0 0 0 0 0 0 0 0 127 0" result="hardAlpha"/>
<feOffset dy="4"/>
<feGaussianBlur stdDeviation="2"/>
<feComposite in2="hardAlpha" operator="out"/>
<feColorMatrix type="matrix" values="0 0 0 0 0 0 0 0 0 0 0 0 0 0 0 0 0 0 0.25 0"/>
<feBlend mode="normal" in2="BackgroundImageFix" result="effect1_dropShadow_17_324"/>
<feBlend mode="normal" in="SourceGraphic" in2="effect1_dropShadow_17_324" result="shape"/>
</filter>
<clipPath id="clip0_17_324">
<rect width="65" height="50" fill="white" transform="translate(4)"/>
</clipPath>
</defs>
</svg>
